<svg width="128" height="16" viewBox="0 0 128 16" fill="none" xmlns="http://www.w3.org/2000/svg">
<path d="M7.542 15.252C6.546 15.252 5.622 15.096 4.77 14.784C3.93 14.46 3.198 14.004 2.574 13.416C1.962 12.828 1.482 12.138 1.134 11.346C0.786 10.542 0.612 9.66 0.612 8.7C0.612 7.74 0.786 6.864 1.134 6.072C1.482 5.268 1.962 4.572 2.574 3.984C3.198 3.396 3.93 2.946 4.77 2.634C5.622 2.31 6.546 2.148 7.542 2.148C8.706 2.148 9.744 2.352 10.656 2.76C11.58 3.168 12.348 3.756 12.96 4.524L10.692 6.576C10.284 6.096 9.834 5.73 9.342 5.478C8.862 5.226 8.322 5.1 7.722 5.1C7.206 5.1 6.732 5.184 6.3 5.352C5.868 5.52 5.496 5.766 5.184 6.09C4.884 6.402 4.644 6.78 4.464 7.224C4.296 7.668 4.212 8.16 4.212 8.7C4.212 9.24 4.296 9.732 4.464 10.176C4.644 10.62 4.884 11.004 5.184 11.328C5.496 11.64 5.868 11.88 6.3 12.048C6.732 12.216 7.206 12.3 7.722 12.3C8.322 12.3 8.862 12.174 9.342 11.922C9.834 11.67 10.284 11.304 10.692 10.824L12.96 12.876C12.348 13.632 11.58 14.22 10.656 14.64C9.744 15.048 8.706 15.252 7.542 15.252ZM14.3871 15V5.244H17.6451V8.088L17.1591 7.278C17.4471 6.546 17.9151 6 18.5631 5.64C19.2111 5.268 19.9971 5.082 20.9211 5.082V8.16C20.7651 8.136 20.6271 8.124 20.5071 8.124C20.3991 8.112 20.2791 8.106 20.1471 8.106C19.4511 8.106 18.8871 8.298 18.4551 8.682C18.0231 9.054 17.8071 9.666 17.8071 10.518V15H14.3871ZM22.3324 15V5.244H25.7524V15H22.3324ZM24.0424 4.164C23.4184 4.164 22.9144 3.99 22.5304 3.642C22.1464 3.294 21.9544 2.862 21.9544 2.346C21.9544 1.83 22.1464 1.398 22.5304 1.05C22.9144 0.702 23.4184 0.528 24.0424 0.528C24.6664 0.528 25.1704 0.696 25.5544 1.032C25.9384 1.356 26.1304 1.776 26.1304 2.292C26.1304 2.832 25.9384 3.282 25.5544 3.642C25.1824 3.99 24.6784 4.164 24.0424 4.164ZM40.683 5.082C41.439 5.082 42.111 5.238 42.699 5.55C43.299 5.85 43.767 6.318 44.103 6.954C44.451 7.59 44.625 8.412 44.625 9.42V15H41.205V9.978C41.205 9.282 41.073 8.778 40.809 8.466C40.545 8.142 40.185 7.98 39.729 7.98C39.405 7.98 39.111 8.058 38.847 8.214C38.583 8.37 38.379 8.61 38.235 8.934C38.091 9.246 38.019 9.654 38.019 10.158V15H34.599V9.978C34.599 9.282 34.467 8.778 34.203 8.466C33.951 8.142 33.591 7.98 33.123 7.98C32.787 7.98 32.487 8.058 32.223 8.214C31.971 8.37 31.767 8.61 31.611 8.934C31.467 9.246 31.395 9.654 31.395 10.158V15H27.975V5.244H31.233V7.962L30.585 7.188C30.945 6.492 31.437 5.97 32.061 5.622C32.685 5.262 33.381 5.082 34.149 5.082C35.025 5.082 35.793 5.31 36.453 5.766C37.125 6.21 37.575 6.906 37.803 7.854L36.687 7.62C37.035 6.828 37.557 6.21 38.253 5.766C38.961 5.31 39.771 5.082 40.683 5.082ZM53.2275 15.252C52.2315 15.252 51.3075 15.096 50.4555 14.784C49.6155 14.46 48.8835 14.004 48.2595 13.416C47.6475 12.828 47.1675 12.138 46.8195 11.346C46.4715 10.542 46.2975 9.66 46.2975 8.7C46.2975 7.74 46.4715 6.864 46.8195 6.072C47.1675 5.268 47.6475 4.572 48.2595 3.984C48.8835 3.396 49.6155 2.946 50.4555 2.634C51.3075 2.31 52.2315 2.148 53.2275 2.148C54.3915 2.148 55.4295 2.352 56.3415 2.76C57.2655 3.168 58.0335 3.756 58.6455 4.524L56.3775 6.576C55.9695 6.096 55.5195 5.73 55.0275 5.478C54.5475 5.226 54.0075 5.1 53.4075 5.1C52.8915 5.1 52.4175 5.184 51.9855 5.352C51.5535 5.52 51.1815 5.766 50.8695 6.09C50.5695 6.402 50.3295 6.78 50.1495 7.224C49.9815 7.668 49.8975 8.16 49.8975 8.7C49.8975 9.24 49.9815 9.732 50.1495 10.176C50.3295 10.62 50.5695 11.004 50.8695 11.328C51.1815 11.64 51.5535 11.88 51.9855 12.048C52.4175 12.216 52.8915 12.3 53.4075 12.3C54.0075 12.3 54.5475 12.174 55.0275 11.922C55.5195 11.67 55.9695 11.304 56.3775 10.824L58.6455 12.876C58.0335 13.632 57.2655 14.22 56.3415 14.64C55.4295 15.048 54.3915 15.252 53.2275 15.252ZM64.6522 15.162C63.5842 15.162 62.6362 14.946 61.8082 14.514C60.9802 14.082 60.3262 13.488 59.8462 12.732C59.3782 11.964 59.1442 11.088 59.1442 10.104C59.1442 9.12 59.3782 8.25 59.8462 7.494C60.3262 6.738 60.9802 6.15 61.8082 5.73C62.6362 5.298 63.5842 5.082 64.6522 5.082C65.7202 5.082 66.6682 5.298 67.4962 5.73C68.3362 6.15 68.9902 6.738 69.4582 7.494C69.9262 8.25 70.1602 9.12 70.1602 10.104C70.1602 11.088 69.9262 11.964 69.4582 12.732C68.9902 13.488 68.3362 14.082 67.4962 14.514C66.6682 14.946 65.7202 15.162 64.6522 15.162ZM64.6522 12.444C65.0482 12.444 65.3962 12.354 65.6962 12.174C66.0082 11.994 66.2542 11.73 66.4342 11.382C66.6142 11.022 66.7042 10.596 66.7042 10.104C66.7042 9.612 66.6142 9.198 66.4342 8.862C66.2542 8.514 66.0082 8.25 65.6962 8.07C65.3962 7.89 65.0482 7.8 64.6522 7.8C64.2682 7.8 63.9202 7.89 63.6082 8.07C63.3082 8.25 63.0622 8.514 62.8702 8.862C62.6902 9.198 62.6002 9.612 62.6002 10.104C62.6002 10.596 62.6902 11.022 62.8702 11.382C63.0622 11.73 63.3082 11.994 63.6082 12.174C63.9202 12.354 64.2682 12.444 64.6522 12.444ZM78.0985 5.082C78.8545 5.082 79.5385 5.238 80.1505 5.55C80.7625 5.85 81.2425 6.318 81.5905 6.954C81.9505 7.59 82.1305 8.412 82.1305 9.42V15H78.7105V9.978C78.7105 9.282 78.5665 8.778 78.2785 8.466C78.0025 8.142 77.6125 7.98 77.1085 7.98C76.7485 7.98 76.4185 8.064 76.1185 8.232C75.8185 8.388 75.5845 8.634 75.4165 8.97C75.2485 9.306 75.1645 9.744 75.1645 10.284V15H71.7445V5.244H75.0025V8.016L74.3725 7.206C74.7445 6.498 75.2545 5.97 75.9025 5.622C76.5505 5.262 77.2825 5.082 78.0985 5.082ZM83.6318 15V12.768L88.3478 8.358C88.6838 8.046 88.9298 7.77 89.0858 7.53C89.2538 7.29 89.3618 7.074 89.4098 6.882C89.4698 6.678 89.4998 6.492 89.4998 6.324C89.4998 5.916 89.3618 5.598 89.0858 5.37C88.8218 5.142 88.4198 5.028 87.8798 5.028C87.4238 5.028 86.9978 5.13 86.6018 5.334C86.2058 5.538 85.8818 5.844 85.6298 6.252L82.9838 4.776C83.4518 3.984 84.1298 3.348 85.0178 2.868C85.9058 2.388 86.9678 2.148 88.2038 2.148C89.1758 2.148 90.0278 2.304 90.7598 2.616C91.4918 2.928 92.0618 3.372 92.4698 3.948C92.8898 4.524 93.0998 5.202 93.0998 5.982C93.0998 6.39 93.0458 6.798 92.9378 7.206C92.8298 7.602 92.6198 8.028 92.3078 8.484C92.0078 8.928 91.5578 9.426 90.9578 9.978L87.2138 13.434L86.6198 12.174H93.4418V15H83.6318ZM100.041 15.252C98.9612 15.252 98.0012 14.994 97.1612 14.478C96.3332 13.962 95.6792 13.218 95.1992 12.246C94.7192 11.274 94.4792 10.092 94.4792 8.7C94.4792 7.308 94.7192 6.126 95.1992 5.154C95.6792 4.182 96.3332 3.438 97.1612 2.922C98.0012 2.406 98.9612 2.148 100.041 2.148C101.109 2.148 102.057 2.406 102.885 2.922C103.725 3.438 104.385 4.182 104.865 5.154C105.345 6.126 105.585 7.308 105.585 8.7C105.585 10.092 105.345 11.274 104.865 12.246C104.385 13.218 103.725 13.962 102.885 14.478C102.057 14.994 101.109 15.252 100.041 15.252ZM100.041 12.336C100.425 12.336 100.761 12.216 101.049 11.976C101.349 11.736 101.583 11.352 101.751 10.824C101.919 10.284 102.003 9.576 102.003 8.7C102.003 7.812 101.919 7.104 101.751 6.576C101.583 6.048 101.349 5.664 101.049 5.424C100.761 5.184 100.425 5.064 100.041 5.064C99.6572 5.064 99.3152 5.184 99.0152 5.424C98.7272 5.664 98.4932 6.048 98.3132 6.576C98.1452 7.104 98.0612 7.812 98.0612 8.7C98.0612 9.576 98.1452 10.284 98.3132 10.824C98.4932 11.352 98.7272 11.736 99.0152 11.976C99.3152 12.216 99.6572 12.336 100.041 12.336ZM106.606 15V12.768L111.322 8.358C111.658 8.046 111.904 7.77 112.06 7.53C112.228 7.29 112.336 7.074 112.384 6.882C112.444 6.678 112.474 6.492 112.474 6.324C112.474 5.916 112.336 5.598 112.06 5.37C111.796 5.142 111.394 5.028 110.854 5.028C110.398 5.028 109.972 5.13 109.576 5.334C109.18 5.538 108.856 5.844 108.604 6.252L105.958 4.776C106.426 3.984 107.104 3.348 107.992 2.868C108.88 2.388 109.942 2.148 111.178 2.148C112.15 2.148 113.002 2.304 113.734 2.616C114.466 2.928 115.036 3.372 115.444 3.948C115.864 4.524 116.074 5.202 116.074 5.982C116.074 6.39 116.02 6.798 115.912 7.206C115.804 7.602 115.594 8.028 115.282 8.484C114.982 8.928 114.532 9.426 113.932 9.978L110.188 13.434L109.594 12.174H116.416V15H106.606ZM121.666 15.252C120.79 15.252 119.914 15.144 119.038 14.928C118.174 14.712 117.418 14.406 116.77 14.01L118.066 11.328C118.57 11.664 119.128 11.922 119.74 12.102C120.364 12.282 120.97 12.372 121.558 12.372C122.17 12.372 122.656 12.258 123.016 12.03C123.376 11.802 123.556 11.478 123.556 11.058C123.556 10.686 123.406 10.392 123.106 10.176C122.806 9.948 122.314 9.834 121.63 9.834H120.136V7.584L123.52 3.93L123.862 5.154H117.418V2.4H126.526V4.632L123.142 8.286L121.396 7.296H122.368C123.94 7.296 125.128 7.65 125.932 8.358C126.748 9.054 127.156 9.954 127.156 11.058C127.156 11.778 126.958 12.456 126.562 13.092C126.178 13.728 125.584 14.25 124.78 14.658C123.976 15.054 122.938 15.252 121.666 15.252Z" fill="black"/>
</svg>
