<svg width="207" height="208" viewBox="0 0 207 208" fill="none" xmlns="http://www.w3.org/2000/svg">
<path d="M87.5 203.7C88.3 202.9 89.5 202.9 90.3 203.7C91.1 204.5 91.1 205.7 90.3 206.5C89.5 207.3 88.3 207.3 87.5 206.5C86.8 205.8 86.8 204.5 87.5 203.7Z" fill="#F7ECDE"/>
<path d="M65.8 182C66.6 181.2 67.8 181.2 68.6 182C69.4 182.8 69.4 184 68.6 184.8C67.8 185.6 66.6 185.6 65.8 184.8C65 184 65 182.8 65.8 182Z" fill="#F7ECDE"/>
<path d="M44.1 160.3C44.9 159.5 46.1 159.5 46.9 160.3C47.7 161.1 47.7 162.3 46.9 163.1C46.1 163.9 44.9 163.9 44.1 163.1C43.3 162.3 43.3 161 44.1 160.3Z" fill="#F7ECDE"/>
<path d="M23.7 141.9C24.8046 141.9 25.7 141.004 25.7 139.9C25.7 138.795 24.8046 137.9 23.7 137.9C22.5954 137.9 21.7 138.795 21.7 139.9C21.7 141.004 22.5954 141.9 23.7 141.9Z" fill="#F7ECDE"/>
<path d="M0.6 116.8C1.4 116 2.6 116 3.4 116.8C4.2 117.6 4.2 118.8 3.4 119.6C2.6 120.4 1.4 120.4 0.6 119.6C-0.2 118.8 -0.2 117.5 0.6 116.8Z" fill="#F7ECDE"/>
<path d="M110.585 180.655C111.385 179.855 112.585 179.855 113.385 180.655C114.185 181.455 114.185 182.655 113.385 183.455C112.585 184.255 111.385 184.255 110.585 183.455C109.785 182.655 109.785 181.455 110.585 180.655Z" fill="#F7ECDE"/>
<path d="M88.7849 158.955C89.5849 158.155 90.785 158.155 91.585 158.955C92.385 159.755 92.385 160.955 91.585 161.755C90.785 162.555 89.5849 162.555 88.7849 161.755C88.0849 160.955 88.0849 159.655 88.7849 158.955Z" fill="#F7ECDE"/>
<path d="M67.085 137.155C67.885 136.355 69.085 136.355 69.885 137.155C70.685 137.955 70.685 139.155 69.885 139.955C69.085 140.755 67.885 140.755 67.085 139.955C66.285 139.155 66.285 137.955 67.085 137.155Z" fill="#F7ECDE"/>
<path d="M46.685 118.855C47.7895 118.855 48.685 117.959 48.685 116.855C48.685 115.75 47.7895 114.855 46.685 114.855C45.5804 114.855 44.685 115.75 44.685 116.855C44.685 117.959 45.5804 118.855 46.685 118.855Z" fill="#F7ECDE"/>
<path d="M24.985 97.0547C26.0895 97.0547 26.985 96.1593 26.985 95.0547C26.985 93.9501 26.0895 93.0547 24.985 93.0547C23.8804 93.0547 22.985 93.9501 22.985 95.0547C22.985 96.1593 23.8804 97.0547 24.985 97.0547Z" fill="#F7ECDE"/>
<path d="M135.032 160.946C136.137 160.946 137.032 160.05 137.032 158.946C137.032 157.841 136.137 156.946 135.032 156.946C133.928 156.946 133.032 157.841 133.032 158.946C133.032 160.05 133.928 160.946 135.032 160.946Z" fill="#F7ECDE"/>
<path d="M113.232 139.146C114.337 139.146 115.232 138.25 115.232 137.146C115.232 136.041 114.337 135.146 113.232 135.146C112.128 135.146 111.232 136.041 111.232 137.146C111.232 138.25 112.128 139.146 113.232 139.146Z" fill="#F7ECDE"/>
<path d="M90.1322 114.046C90.9322 113.246 92.1322 113.246 92.9322 114.046C93.7322 114.846 93.7322 116.046 92.9322 116.846C92.1322 117.646 90.9322 117.646 90.1322 116.846C89.3322 116.046 89.3322 114.846 90.1322 114.046Z" fill="#F7ECDE"/>
<path d="M68.4322 92.346C69.2322 91.546 70.4322 91.546 71.2322 92.346C72.0322 93.146 72.0322 94.346 71.2322 95.146C70.4322 95.946 69.2322 95.946 68.4322 95.146C67.6322 94.346 67.6322 93.046 68.4322 92.346Z" fill="#F7ECDE"/>
<path d="M46.6322 70.5459C47.4322 69.7459 48.6322 69.7459 49.4322 70.5459C50.2322 71.3459 50.2322 72.5459 49.4322 73.3459C48.6322 74.1459 47.4322 74.1459 46.6322 73.3459C45.9322 72.5459 45.9322 71.3459 46.6322 70.5459Z" fill="#F7ECDE"/>
<path d="M156.667 134.45C157.467 133.65 158.667 133.65 159.467 134.45C160.267 135.25 160.267 136.45 159.467 137.25C158.667 138.05 157.467 138.05 156.667 137.25C155.967 136.45 155.967 135.15 156.667 134.45Z" fill="#F7ECDE"/>
<path d="M134.967 112.65C135.767 111.85 136.967 111.85 137.767 112.65C138.567 113.45 138.567 114.65 137.767 115.45C136.967 116.25 135.767 116.25 134.967 115.45C134.167 114.65 134.167 113.45 134.967 112.65Z" fill="#F7ECDE"/>
<path d="M113.167 90.9499C113.967 90.1499 115.167 90.1499 115.967 90.9499C116.767 91.7499 116.767 92.9499 115.967 93.7499C115.167 94.5499 113.967 94.5499 113.167 93.7499C112.467 92.9499 112.467 91.6499 113.167 90.9499Z" fill="#F7ECDE"/>
<path d="M92.8671 72.5498C93.9716 72.5498 94.8671 71.6544 94.8671 70.5498C94.8671 69.4452 93.9716 68.5498 92.8671 68.5498C91.7625 68.5498 90.8671 69.4452 90.8671 70.5498C90.8671 71.6544 91.7625 72.5498 92.8671 72.5498Z" fill="#F7ECDE"/>
<path d="M69.7671 47.4499C70.5671 46.6499 71.7671 46.6499 72.5671 47.4499C73.3671 48.2499 73.3671 49.4499 72.5671 50.2499C71.7671 51.0499 70.5671 51.0499 69.7671 50.2499C68.9671 49.4499 68.9671 48.2499 69.7671 47.4499Z" fill="#F7ECDE"/>
<path d="M179.652 111.304C180.452 110.504 181.652 110.504 182.452 111.304C183.252 112.104 183.252 113.304 182.452 114.104C181.652 114.904 180.452 114.904 179.652 114.104C178.952 113.304 178.952 112.104 179.652 111.304Z" fill="#F7ECDE"/>
<path d="M157.952 89.6044C158.752 88.8044 159.952 88.8044 160.752 89.6044C161.552 90.4044 161.552 91.6044 160.752 92.4044C159.952 93.2044 158.752 93.2044 157.952 92.4044C157.152 91.6044 157.152 90.4044 157.952 89.6044Z" fill="#F7ECDE"/>
<path d="M136.252 67.9044C137.052 67.1044 138.252 67.1044 139.052 67.9044C139.852 68.7044 139.852 69.9044 139.052 70.7044C138.252 71.5044 137.052 71.5044 136.252 70.7044C135.452 69.9044 135.452 68.6044 136.252 67.9044Z" fill="#F7ECDE"/>
<path d="M115.852 49.5044C116.957 49.5044 117.852 48.609 117.852 47.5044C117.852 46.3998 116.957 45.5044 115.852 45.5044C114.747 45.5044 113.852 46.3998 113.852 47.5044C113.852 48.609 114.747 49.5044 115.852 49.5044Z" fill="#F7ECDE"/>
<path d="M94.152 27.8044C95.2566 27.8044 96.152 26.909 96.152 25.8044C96.152 24.6999 95.2566 23.8044 94.152 23.8044C93.0474 23.8044 92.152 24.6999 92.152 25.8044C92.152 26.909 93.0474 27.8044 94.152 27.8044Z" fill="#F7ECDE"/>
<path d="M204.137 91.6592C205.242 91.6592 206.137 90.7637 206.137 89.6592C206.137 88.5546 205.242 87.6592 204.137 87.6592C203.032 87.6592 202.137 88.5546 202.137 89.6592C202.137 90.7637 203.032 91.6592 204.137 91.6592Z" fill="#F7ECDE"/>
<path d="M182.337 69.9592C183.442 69.9592 184.337 69.0638 184.337 67.9592C184.337 66.8547 183.442 65.9592 182.337 65.9592C181.232 65.9592 180.337 66.8547 180.337 67.9592C180.337 69.0638 181.232 69.9592 182.337 69.9592Z" fill="#F7ECDE"/>
<path d="M159.237 44.7592C160.037 43.9592 161.237 43.9592 162.037 44.7592C162.837 45.5592 162.837 46.7592 162.037 47.5592C161.237 48.3592 160.037 48.3592 159.237 47.5592C158.437 46.7592 158.437 45.5592 159.237 44.7592Z" fill="#F7ECDE"/>
<path d="M137.537 23.0592C138.337 22.2592 139.537 22.2592 140.337 23.0592C141.137 23.8592 141.137 25.0592 140.337 25.8592C139.537 26.6592 138.337 26.6592 137.537 25.8592C136.737 25.0592 136.737 23.7592 137.537 23.0592Z" fill="#F7ECDE"/>
<path d="M115.737 1.25918C116.537 0.45918 117.737 0.45918 118.537 1.25918C119.337 2.05918 119.337 3.25918 118.537 4.05918C117.737 4.85918 116.537 4.85918 115.737 4.05918C114.937 3.35918 114.937 2.05918 115.737 1.25918Z" fill="#F7ECDE"/>
</svg>
