<svg width="267" height="267" viewBox="0 0 267 267" fill="none" xmlns="http://www.w3.org/2000/svg">
<path d="M63.8247 191.941C64.9561 191.951 65.7975 192.806 65.788 193.938C65.7786 195.069 64.923 195.91 63.7916 195.901C62.6603 195.891 61.8189 195.036 61.8284 193.905C61.8366 192.915 62.7635 192.003 63.8247 191.941Z" fill="#54BAB9"/>
<path d="M64.0812 161.254C65.2125 161.263 66.0539 162.119 66.0444 163.25C66.035 164.382 65.1794 165.223 64.0481 165.214C62.9167 165.204 62.0753 164.349 62.0848 163.217C62.0942 162.086 62.9498 161.244 64.0812 161.254Z" fill="#54BAB9"/>
<path d="M64.3376 130.567C65.4689 130.576 66.3103 131.432 66.3009 132.563C66.2914 133.694 65.4358 134.536 64.3045 134.526C63.1732 134.517 62.3318 133.661 62.3412 132.53C62.3507 131.398 63.2775 130.487 64.3376 130.567Z" fill="#54BAB9"/>
<path d="M63.1527 103.12C63.9272 103.908 65.1935 103.918 65.981 103.144C66.7686 102.369 66.7791 101.103 66.0046 100.315C65.2301 99.5277 63.9639 99.5171 63.1763 100.292C62.3888 101.066 62.3782 102.332 63.1527 103.12Z" fill="#54BAB9"/>
<path d="M64.8516 69.0504C65.9829 69.0599 66.8244 69.9154 66.8149 71.0468C66.8054 72.1781 65.9499 73.0195 64.8185 73.0101C63.6872 73.0006 62.8458 72.145 62.8552 71.0137C62.8647 69.8824 63.7916 68.9708 64.8516 69.0504Z" fill="#54BAB9"/>
<path d="M96.4424 192.242C97.5737 192.251 98.4151 193.107 98.4057 194.238C98.3962 195.37 97.5406 196.211 96.4093 196.201C95.278 196.192 94.4366 195.336 94.446 194.205C94.4555 193.074 95.311 192.232 96.4424 192.242Z" fill="#54BAB9"/>
<path d="M96.6287 161.483C97.76 161.493 98.6014 162.348 98.592 163.48C98.5825 164.611 97.7269 165.452 96.5956 165.443C95.4643 165.433 94.6229 164.578 94.6323 163.446C94.7119 162.386 95.6388 161.475 96.6287 161.483Z" fill="#54BAB9"/>
<path d="M96.9564 130.726C98.0877 130.735 98.9292 131.591 98.9197 132.722C98.9102 133.853 98.0547 134.695 96.9233 134.685C95.792 134.676 94.9506 133.82 94.96 132.689C94.9695 131.558 95.8251 130.716 96.9564 130.726Z" fill="#54BAB9"/>
<path d="M95.7002 103.349C96.4747 104.137 97.741 104.147 98.5286 103.373C99.3161 102.598 99.3267 101.332 98.5522 100.545C97.7777 99.757 96.5114 99.7464 95.7239 100.521C94.9363 101.295 94.9257 102.562 95.7002 103.349Z" fill="#54BAB9"/>
<path d="M96.0279 72.5918C96.8024 73.3793 98.0687 73.3899 98.8563 72.6154C99.6438 71.8409 99.6544 70.5746 98.8799 69.7871C98.1054 68.9995 96.8391 68.9889 96.0516 69.7634C95.264 70.5379 95.2534 71.8042 96.0279 72.5918Z" fill="#54BAB9"/>
<path d="M127.636 195.853C128.411 196.641 129.677 196.651 130.465 195.877C131.252 195.102 131.263 193.836 130.488 193.049C129.714 192.261 128.447 192.251 127.66 193.025C126.872 193.8 126.862 195.066 127.636 195.853Z" fill="#54BAB9"/>
<path d="M127.894 165.024C128.668 165.812 129.935 165.823 130.722 165.048C131.51 164.274 131.52 163.007 130.746 162.22C129.971 161.432 128.705 161.422 127.917 162.196C127.13 162.971 127.119 164.237 127.894 165.024Z" fill="#54BAB9"/>
<path d="M129.593 130.955C130.724 130.964 131.565 131.82 131.556 132.951C131.547 134.083 130.691 134.924 129.56 134.915C128.428 134.905 127.587 134.05 127.596 132.918C127.606 131.787 128.461 130.945 129.593 130.955Z" fill="#54BAB9"/>
<path d="M129.849 100.268C130.981 100.277 131.822 101.133 131.813 102.264C131.803 103.395 130.947 104.237 129.816 104.227C128.685 104.218 127.843 103.362 127.853 102.231C127.862 101.1 128.789 100.188 129.849 100.268Z" fill="#54BAB9"/>
<path d="M130.107 69.4388C131.238 69.4483 132.08 70.3039 132.07 71.4352C132.061 72.5665 131.205 73.4079 130.074 73.3985C128.942 73.389 128.101 72.5334 128.11 71.4021C128.19 70.3421 129.046 69.5007 130.107 69.4388Z" fill="#54BAB9"/>
<path d="M161.698 192.7C162.829 192.71 163.67 193.565 163.661 194.697C163.651 195.828 162.796 196.669 161.664 196.66C160.533 196.651 159.692 195.795 159.701 194.664C159.781 193.604 160.708 192.692 161.698 192.7Z" fill="#54BAB9"/>
<path d="M162.025 161.943C163.157 161.952 163.998 162.808 163.989 163.939C163.979 165.071 163.124 165.912 161.992 165.903C160.861 165.893 160.019 165.037 160.029 163.906C160.038 162.775 160.894 161.933 162.025 161.943Z" fill="#54BAB9"/>
<path d="M162.212 131.184C163.343 131.194 164.184 132.049 164.175 133.181C164.165 134.312 163.31 135.153 162.179 135.144C161.047 135.134 160.206 134.279 160.215 133.147C160.295 132.087 161.222 131.176 162.212 131.184Z" fill="#54BAB9"/>
<path d="M161.097 103.809C161.871 104.596 163.138 104.607 163.925 103.833C164.713 103.058 164.723 101.792 163.949 101.004C163.174 100.217 161.908 100.206 161.12 100.981C160.333 101.755 160.322 103.021 161.097 103.809Z" fill="#54BAB9"/>
<path d="M162.796 69.7394C163.927 69.7488 164.769 70.6044 164.759 71.7357C164.75 72.8671 163.894 73.7085 162.763 73.699C161.631 73.6896 160.79 72.834 160.799 71.7027C160.809 70.5713 161.664 69.7299 162.796 69.7394Z" fill="#54BAB9"/>
<path d="M194.316 192.859C195.448 192.869 196.289 193.725 196.28 194.856C196.27 195.987 195.415 196.829 194.283 196.819C193.152 196.81 192.311 195.954 192.32 194.823C192.4 193.763 193.255 192.921 194.316 192.859Z" fill="#54BAB9"/>
<path d="M194.573 162.172C195.704 162.182 196.546 163.037 196.536 164.168C196.527 165.3 195.671 166.141 194.54 166.132C193.408 166.122 192.567 165.267 192.576 164.135C192.586 163.004 193.442 162.163 194.573 162.172Z" fill="#54BAB9"/>
<path d="M194.829 131.485C195.961 131.494 196.802 132.35 196.793 133.481C196.783 134.612 195.928 135.454 194.796 135.444C193.665 135.435 192.823 134.579 192.833 133.448C192.842 132.317 193.769 131.405 194.829 131.485Z" fill="#54BAB9"/>
<path d="M193.644 104.038C194.419 104.826 195.685 104.836 196.473 104.062C197.26 103.287 197.271 102.021 196.496 101.233C195.722 100.446 194.456 100.435 193.668 101.21C192.88 101.984 192.87 103.251 193.644 104.038Z" fill="#54BAB9"/>
<path d="M193.901 73.3508C194.675 74.1383 195.942 74.1489 196.729 73.3744C197.517 72.5999 197.527 71.3336 196.753 70.5461C195.978 69.7586 194.712 69.748 193.924 70.5225C193.137 71.297 193.126 72.5632 193.901 73.3508Z" fill="#54BAB9"/>
<path d="M225.492 196.542C226.266 197.33 227.532 197.34 228.32 196.566C229.107 195.791 229.118 194.525 228.344 193.738C227.569 192.95 226.303 192.939 225.515 193.714C224.728 194.488 224.717 195.755 225.492 196.542Z" fill="#54BAB9"/>
<path d="M225.678 165.784C226.452 166.571 227.719 166.582 228.506 165.807C229.294 165.033 229.304 163.767 228.53 162.979C227.755 162.191 226.489 162.181 225.701 162.955C224.914 163.73 224.903 164.996 225.678 165.784Z" fill="#54BAB9"/>
<path d="M227.448 131.644C228.579 131.653 229.421 132.509 229.411 133.64C229.402 134.772 228.546 135.613 227.415 135.604C226.284 135.594 225.442 134.739 225.452 133.607C225.461 132.476 226.317 131.634 227.448 131.644Z" fill="#54BAB9"/>
<path d="M227.705 100.957C228.836 100.966 229.677 101.822 229.668 102.953C229.658 104.084 228.803 104.926 227.671 104.916C226.54 104.907 225.699 104.051 225.708 102.92C225.718 101.788 226.644 100.877 227.705 100.957Z" fill="#54BAB9"/>
<path d="M227.962 70.1278C229.093 70.1372 229.935 70.9928 229.925 72.1242C229.916 73.2555 229.06 74.0969 227.929 74.0875C226.798 74.078 225.956 73.2224 225.966 72.0911C225.904 71.0299 226.831 70.1183 227.962 70.1278Z" fill="#54BAB9"/>
</svg>
