<?xml version="1.0" encoding="UTF-8"?>
<svg id="Warstwa_2" data-name="Warstwa 2" xmlns="http://www.w3.org/2000/svg" viewBox="0 0 253.58 60.01">
  <defs>
    <style>
      .cls-1 {
        fill: #f6a200;
      }

      .cls-2 {
        fill: #122945;
      }

      .cls-3 {
        fill: #212c3f;
      }

      .cls-4 {
        fill: #0c65af;
      }

      .cls-5 {
        fill: #85b9e5;
      }

      .cls-6 {
        fill: #6fa1d6;
      }

      .cls-7 {
        fill: #4978bb;
      }

      .cls-8 {
        fill: #5c8bc8;
      }

      .cls-9 {
        fill: #52535d;
      }
    </style>
  </defs>
  <g id="Warstwa_1-2" data-name="Warstwa 1">
    <g>
      <path class="cls-3" d="M29.18,17.79h4.91l9.17,14.31v-14.31h5.11v24.1h-4.91l-9.17-14.27v14.27h-5.11V17.79Z"/>
      <path class="cls-3" d="M53.89,17.79h13.72v5.04h-8.28v4.52h8.09v5.04h-8.09v9.49h-5.43V17.79Z"/>
      <path class="cls-3" d="M70.42,29.84c0-7.37,5.37-12.54,12.57-12.54s12.6,5.17,12.6,12.54-5.4,12.54-12.6,12.54-12.57-5.17-12.57-12.54Zm12.57,7.37c3.96,0,6.97-2.95,6.97-7.37s-3.01-7.37-6.97-7.37-6.94,2.95-6.94,7.37,2.98,7.37,6.94,7.37Z"/>
      <path class="cls-3" d="M105.19,32.46v9.43h-5.43V17.79h8.18c5.11,0,8.25,2.55,8.25,7.5,0,3.31-2,5.79-5.4,6.65l6.91,9.95h-6.55l-5.96-9.43Zm2.49-4.35c1.83,0,2.98-1.08,2.98-2.82s-1.15-2.82-2.98-2.82h-2.49v5.63h2.49Z"/>
      <path class="cls-3" d="M121.59,17.79h5.34l7.04,11.85,6.94-11.85h5.24v24.1h-5.11v-14.8l-5.5,9.43h-3.27l-5.57-9.49v14.86h-5.11V17.79Z"/>
      <path class="cls-3" d="M157.73,17.79h5.3l8.18,24.1h-5.66l-1.11-3.63h-8.12l-1.11,3.63h-5.6l8.12-24.1Zm5.27,15.81l-2.65-8.54-2.62,8.54h5.27Z"/>
      <path class="cls-3" d="M176.55,22.83h-5.43v-5.04h16.3v5.04h-5.43v19.05h-5.43V22.83Z"/>
      <path class="cls-3" d="M197.4,32.49l-7.69-14.7h6.12l4.32,8.87,4.29-8.87h5.7l-7.3,14.7v9.4h-5.43v-9.4Z"/>
      <path class="cls-3" d="M218.03,31.87v10.02h-5.43V17.79h5.43v9.33l6.58-9.13h6.38l-8.28,11.29,8.74,12.6h-6.61l-6.81-10.02Z"/>
      <path class="cls-3" d="M240.09,17.79h5.3l8.18,24.1h-5.66l-1.11-3.63h-8.12l-1.11,3.63h-5.6l8.12-24.1Zm5.27,15.81l-2.65-8.54-2.62,8.54h5.27Z"/>
      <rect class="cls-7" x="8.86" y="17.78" width="6.32" height="6.32"/>
      <rect class="cls-4" x="8.89" y="8.89" width="6.32" height="6.32"/>
      <rect class="cls-5" x="8.86" y="44.46" width="6.32" height="6.32"/>
      <rect class="cls-8" x="8.86" y="26.66" width="6.32" height="6.32"/>
      <rect class="cls-6" x="8.86" y="35.56" width="6.32" height="6.32"/>
      <rect class="cls-1" x="17.82" width="6.32" height="6.32"/>
      <rect class="cls-7" y="26.67" width="6.32" height="6.32"/>
      <rect class="cls-4" y="17.77" width="6.32" height="6.32"/>
      <rect class="cls-5" y="53.34" width="6.32" height="6.32"/>
      <rect class="cls-8" y="35.56" width="6.32" height="6.32"/>
      <rect class="cls-6" y="44.49" width="6.32" height="6.32"/>
      <rect class="cls-2" x="17.97" y="17.79" width="6.16" height="24.1"/>
      <g>
        <path class="cls-9" d="M20.48,57.27l-.93,2.6h-1.14l3.08-8.65h1.41l3.21,8.65h-1.22l-.96-2.6h-3.45Zm3.16-.98c-.82-2.27-1.28-3.48-1.46-4.14h-.01c-.21,.73-.72,2.2-1.38,4.14h2.86Z"/>
        <path class="cls-9" d="M28.64,56.57c.53-.62,1.92-2.08,2.77-3.01h1.3l-2.37,2.46,2.65,3.85h-1.27l-2.12-3.15-.95,.92v2.24h-1.09v-9.13h1.09v5.83Z"/>
        <path class="cls-9" d="M38.93,58.49c0,.57,.05,1.19,.09,1.38h-1.04c-.05-.14-.09-.44-.1-.83-.22,.42-.72,.98-1.95,.98-1.49,0-2.12-.97-2.12-1.93,0-1.41,1.11-2.05,2.98-2.05h1.08v-.54c0-.56-.18-1.23-1.36-1.23-1.05,0-1.23,.52-1.35,1.02h-1.05c.08-.87,.62-1.87,2.43-1.87,1.54,0,2.39,.63,2.39,2.07v3.01Zm-1.06-1.7h-1.02c-1.26,0-1.93,.35-1.93,1.24,0,.66,.45,1.13,1.23,1.13,1.52,0,1.72-1.02,1.72-2.17v-.2Z"/>
        <path class="cls-9" d="M46.29,50.73v7.35c0,.59,0,1.17,.01,1.78h-1.05c-.03-.17-.05-.65-.05-.9-.31,.66-.95,1.04-1.98,1.04-1.62,0-2.62-1.31-2.62-3.24s1.07-3.37,2.82-3.37c1.12,0,1.61,.45,1.78,.8v-3.48h1.09Zm-4.56,6.01c0,1.52,.72,2.35,1.71,2.35,1.47,0,1.8-1.09,1.8-2.47s-.29-2.29-1.71-2.29c-1.11,0-1.8,.88-1.8,2.41Z"/>
        <path class="cls-9" d="M49.05,56.91c0,1.28,.65,2.19,1.72,2.19,1,0,1.32-.51,1.52-.98h1.1c-.25,.81-.92,1.89-2.65,1.89-1.98,0-2.79-1.61-2.79-3.23,0-1.88,.95-3.37,2.86-3.37,2.03,0,2.7,1.63,2.7,2.98,0,.19,0,.35-.02,.52h-4.44Zm3.36-.77c-.01-1.04-.53-1.87-1.61-1.87s-1.6,.77-1.71,1.87h3.32Z"/>
        <path class="cls-9" d="M55.17,55.18c0-.54,0-1.11-.01-1.63h1.05c.02,.19,.05,.65,.04,.97,.29-.56,.84-1.12,1.83-1.12,.89,0,1.51,.45,1.75,1.13,.34-.6,.93-1.13,2.01-1.13s1.99,.6,1.99,2.31v4.14h-1.07v-4.01c0-.73-.26-1.5-1.25-1.5s-1.47,.78-1.47,1.89v3.62h-1.07v-3.98c0-.81-.23-1.53-1.22-1.53s-1.5,.82-1.5,2.02v3.49h-1.08v-4.68Z"/>
        <path class="cls-9" d="M65.94,50.73h1.09v1.36h-1.09v-1.36Zm0,2.82h1.09v6.31h-1.09v-6.31Z"/>
        <path class="cls-9" d="M73.76,58.49c0,.57,.05,1.19,.09,1.38h-1.04c-.05-.14-.09-.44-.1-.83-.22,.42-.72,.98-1.95,.98-1.49,0-2.12-.97-2.12-1.93,0-1.41,1.11-2.05,2.98-2.05h1.08v-.54c0-.56-.18-1.23-1.36-1.23-1.05,0-1.23,.52-1.35,1.02h-1.05c.08-.87,.62-1.87,2.43-1.87,1.54,0,2.39,.63,2.39,2.07v3.01Zm-1.06-1.7h-1.02c-1.26,0-1.93,.35-1.93,1.24,0,.66,.45,1.13,1.23,1.13,1.52,0,1.72-1.02,1.72-2.17v-.2Z"/>
        <path class="cls-9" d="M86.51,59.86h-.88c-.06-.17-.09-.55-.11-1.17-.38,.61-1.12,1.29-2.69,1.29-2.5,0-3.82-1.89-3.82-4.36,0-2.59,1.42-4.54,4.03-4.54,2.01,0,3.28,1.09,3.52,2.64h-1.15c-.29-.97-.99-1.68-2.4-1.68-2.01,0-2.81,1.6-2.81,3.53,0,1.78,.8,3.45,2.76,3.45s2.42-1.29,2.42-2.75v-.09h-2.44v-.98h3.55v4.67Z"/>
        <path class="cls-9" d="M94.09,56.7c0,1.82-1.04,3.31-2.97,3.31-1.81,0-2.9-1.4-2.9-3.29s1.07-3.31,2.97-3.31c1.75,0,2.9,1.31,2.9,3.29Zm-4.75,.01c0,1.38,.69,2.39,1.82,2.39s1.8-.96,1.8-2.39-.64-2.4-1.83-2.4-1.8,.95-1.8,2.39Zm3.99-6.1l-1.91,1.91h-1.03l1.59-1.91h1.34Z"/>
        <path class="cls-9" d="M95.76,55.27c0-.88,0-1.38-.01-1.71h1.07c.02,.18,.03,.67,.03,1.29,.33-.85,1.08-1.4,2.12-1.44v1.09c-1.29,.04-2.12,.71-2.12,2.31v3.06h-1.09v-4.59Z"/>
        <path class="cls-9" d="M100.27,55.15c0-.55,0-1.1-.01-1.59h1.06c.03,.19,.05,.85,.04,1.04,.25-.54,.77-1.19,1.99-1.19s2.11,.72,2.11,2.4v4.06h-1.09v-3.92c0-.95-.37-1.59-1.33-1.59-1.19,0-1.67,.91-1.67,2.17v3.34h-1.09v-4.72Z"/>
        <path class="cls-9" d="M107.55,50.73h1.09v1.36h-1.09v-1.36Zm0,2.82h1.09v6.31h-1.09v-6.31Z"/>
        <path class="cls-9" d="M115.72,57.94c-.27,1.09-1,2.08-2.61,2.08-1.74,0-2.81-1.25-2.81-3.27,0-1.78,1.01-3.34,2.89-3.34s2.45,1.3,2.53,2.11h-1.08c-.16-.64-.56-1.2-1.47-1.2-1.12,0-1.75,.96-1.75,2.39s.61,2.4,1.71,2.4c.79,0,1.25-.42,1.5-1.17h1.08Z"/>
        <path class="cls-9" d="M116.81,58.98l3.63-4.51h-3.45v-.92h4.69v.91l-3.58,4.48h3.75l-.18,.91h-4.87v-.88Z"/>
        <path class="cls-9" d="M128.64,56.7c0,1.82-1.04,3.31-2.97,3.31-1.81,0-2.9-1.4-2.9-3.29s1.07-3.31,2.97-3.31c1.75,0,2.9,1.31,2.9,3.29Zm-4.75,.01c0,1.38,.69,2.39,1.82,2.39s1.8-.96,1.8-2.39-.64-2.4-1.83-2.4-1.8,.95-1.8,2.39Z"/>
        <path class="cls-9" d="M133.58,56.18v.99h-3.27v-.99h3.27Z"/>
        <path class="cls-9" d="M135.56,51.21h1.15v3.61h4.51v-3.61h1.15v8.65h-1.15v-4.06h-4.51v4.06h-1.15v-8.65Z"/>
        <path class="cls-9" d="M149.52,58.03c0,.61,0,1.47,.01,1.84h-1.06c-.02-.17-.04-.55-.04-.95-.31,.7-.92,1.09-1.91,1.09-1.06,0-2.08-.53-2.08-2.31v-4.15h1.08v3.91c0,.83,.26,1.59,1.31,1.59,1.16,0,1.61-.64,1.61-2.22v-3.29h1.09v4.47Z"/>
        <path class="cls-9" d="M150.96,53.56h1.09v-1.86h1.09v1.86h1.39v.89h-1.39v3.69c0,.61,.15,.93,.72,.93,.15,0,.38,0,.55-.05v.82c-.27,.1-.64,.12-.94,.12-.98,0-1.42-.51-1.42-1.56v-3.95h-1.09v-.89Z"/>
        <path class="cls-9" d="M155.89,55.15c0-.55,0-1.1-.01-1.59h1.06c.03,.19,.05,.85,.04,1.04,.25-.54,.77-1.19,1.99-1.19s2.11,.72,2.11,2.4v4.06h-1.09v-3.92c0-.95-.37-1.59-1.33-1.59-1.19,0-1.67,.91-1.67,2.17v3.34h-1.09v-4.72Z"/>
        <path class="cls-9" d="M163.18,50.73h1.09v1.36h-1.09v-1.36Zm0,2.82h1.09v6.31h-1.09v-6.31Z"/>
        <path class="cls-9" d="M171.35,57.94c-.27,1.09-1,2.08-2.61,2.08-1.74,0-2.81-1.25-2.81-3.27,0-1.78,1.01-3.34,2.89-3.34s2.45,1.3,2.53,2.11h-1.08c-.16-.64-.56-1.2-1.47-1.2-1.12,0-1.75,.96-1.75,2.39s.61,2.4,1.71,2.4c.79,0,1.25-.42,1.5-1.17h1.08Z"/>
        <path class="cls-9" d="M172.44,58.98l3.63-4.51h-3.45v-.92h4.69v.91l-3.58,4.48h3.75l-.18,.91h-4.87v-.88Z"/>
        <path class="cls-9" d="M183.64,58.49c0,.57,.05,1.19,.09,1.38h-1.04c-.05-.14-.09-.44-.1-.83-.22,.42-.72,.98-1.95,.98-1.49,0-2.12-.97-2.12-1.93,0-1.41,1.11-2.05,2.98-2.05h1.08v-.54c0-.56-.18-1.23-1.36-1.23-1.05,0-1.23,.52-1.35,1.02h-1.05c.08-.87,.62-1.87,2.43-1.87,1.54,0,2.39,.63,2.39,2.07v3.01Zm-1.06-1.7h-1.02c-1.26,0-1.93,.35-1.93,1.24,0,.66,.45,1.13,1.23,1.13,1.52,0,1.72-1.02,1.72-2.17v-.2Z"/>
        <path class="cls-9" d="M189.69,53.56c.78,2.96,1.23,4.65,1.34,5.3h.02c.11-.59,.56-2.16,1.45-5.3h1.07c.99,3.57,1.28,4.61,1.38,5.17h.01c.16-.68,.41-1.62,1.39-5.17h1.1l-1.94,6.31h-1.18c-.61-2.3-1.22-4.43-1.35-5.11h-.01c-.12,.69-.68,2.61-1.39,5.11h-1.22l-1.83-6.31h1.15Z"/>
        <path class="cls-9" d="M202.56,51.21h1.14v4.24c.64-.67,2.84-2.84,4.21-4.24h1.43l-3.72,3.65,3.9,5h-1.39l-3.32-4.26-1.11,1v3.26h-1.14v-8.65Z"/>
        <path class="cls-9" d="M210.65,55.27c0-.88,0-1.38-.01-1.71h1.07c.02,.18,.03,.67,.03,1.29,.33-.85,1.08-1.4,2.12-1.44v1.09c-1.29,.04-2.12,.71-2.12,2.31v3.06h-1.09v-4.59Z"/>
        <path class="cls-9" d="M219.76,58.49c0,.57,.05,1.19,.09,1.38h-1.04c-.05-.14-.09-.44-.1-.83-.22,.42-.72,.98-1.95,.98-1.49,0-2.12-.97-2.12-1.93,0-1.41,1.11-2.05,2.98-2.05h1.08v-.54c0-.56-.18-1.23-1.36-1.23-1.05,0-1.23,.52-1.35,1.02h-1.05c.08-.87,.62-1.87,2.43-1.87,1.54,0,2.39,.63,2.39,2.07v3.01Zm-1.06-1.7h-1.02c-1.26,0-1.93,.35-1.93,1.24,0,.66,.45,1.13,1.23,1.13,1.52,0,1.72-1.02,1.72-2.17v-.2Z"/>
        <path class="cls-9" d="M222.98,56.57c.53-.62,1.92-2.08,2.77-3.01h1.3l-2.37,2.46,2.65,3.85h-1.27l-2.12-3.15-.95,.92v2.24h-1.09v-9.13h1.09v5.83Z"/>
        <path class="cls-9" d="M233.72,56.7c0,1.82-1.04,3.31-2.97,3.31-1.81,0-2.9-1.4-2.9-3.29s1.07-3.31,2.97-3.31c1.75,0,2.9,1.31,2.9,3.29Zm-4.75,.01c0,1.38,.69,2.39,1.82,2.39s1.8-.96,1.8-2.39-.64-2.4-1.83-2.4-1.8,.95-1.8,2.39Z"/>
        <path class="cls-9" d="M235.86,53.56c.78,2.96,1.23,4.65,1.34,5.3h.02c.11-.59,.56-2.16,1.45-5.3h1.07c.99,3.57,1.28,4.61,1.38,5.17h.01c.16-.68,.41-1.62,1.39-5.17h1.1l-1.94,6.31h-1.18c-.61-2.3-1.22-4.43-1.35-5.11h-.01c-.12,.69-.68,2.61-1.39,5.11h-1.22l-1.83-6.31h1.15Z"/>
        <path class="cls-9" d="M245.07,50.73h1.09v1.36h-1.09v-1.36Zm0,2.82h1.09v6.31h-1.09v-6.31Z"/>
        <path class="cls-9" d="M248.92,56.91c0,1.28,.65,2.19,1.72,2.19,1,0,1.32-.51,1.52-.98h1.1c-.25,.81-.92,1.89-2.65,1.89-1.98,0-2.79-1.61-2.79-3.23,0-1.88,.95-3.37,2.86-3.37,2.03,0,2.7,1.63,2.7,2.98,0,.19,0,.35-.02,.52h-4.44Zm3.36-.77c-.01-1.04-.53-1.87-1.61-1.87s-1.6,.77-1.71,1.87h3.32Z"/>
      </g>
    </g>
  </g>
</svg>