<svg width="224" height="27" viewBox="0 0 224 27" fill="none" xmlns="http://www.w3.org/2000/svg">
<path d="M10.7047 0.300134C14.5229 -0.165019 18.3761 -0.00129026 22.205 0.203806C22.711 0.188474 23.2159 0.0892527 23.7222 0.14624C24.1559 0.198599 24.5444 0.430597 24.8919 0.690365C25.592 1.2235 26.1794 1.9004 26.6784 2.63226C27.2689 3.5105 27.3973 4.62421 27.9925 5.501C28.7782 6.62888 30.0312 7.30578 30.7779 8.46751C31.2823 9.22136 31.3675 10.1878 31.2722 11.075C31.1894 11.872 30.7844 12.5931 30.2618 13.1714C29.5636 13.9357 28.7622 14.623 28.2411 15.5382C27.8977 16.1405 27.7656 16.8408 27.429 17.4451C26.6276 18.6812 25.4577 19.6046 24.2364 20.3665C22.4698 21.4611 20.5475 22.2439 18.7026 23.18C17.8362 23.6125 17.0037 24.1175 16.1162 24.5049C15.2968 24.8723 14.4 24.9677 13.5291 25.1306C12.7715 25.2498 12.0318 25.4615 11.2842 25.6319C9.45089 26.0415 7.56312 26.3597 5.68405 26.154C4.39992 26.0117 3.09447 25.5341 2.19266 24.5462C1.84231 24.139 1.51553 23.6865 1.33236 23.1725C1.22605 21.6116 1.43222 20.0541 1.62969 18.5102C1.81651 17.024 1.92899 15.4983 1.61735 14.021C1.31525 12.8509 0.598573 11.8555 0.23813 10.7076C-0.0443347 9.83896 -0.107447 8.86005 0.224385 7.99657C0.761544 6.97919 1.82941 6.38676 2.32113 5.33582C2.60135 4.77666 2.65661 4.1362 2.63725 3.51715C3.51606 2.61057 4.61618 1.96346 5.76652 1.49686C7.34714 0.855541 9.02509 0.515643 10.7047 0.300134Z" fill="#0D0D0D"/>
<path d="M8.88151 1.70376C12.7581 1.1471 16.6857 0.908013 20.6008 1.04746C21.5241 1.10674 22.4535 1.04887 23.3737 1.16093C24.1524 1.26425 24.8551 1.70376 25.3599 2.28836C26.5572 3.66561 26.9275 5.55379 28.1502 6.91382C27.6249 6.96887 27.1004 6.82152 26.5774 6.89152C26.4205 6.90536 26.2818 6.98411 26.156 7.07218C26.9515 6.9731 27.7835 7.00218 28.5286 7.32285C29.5475 7.73639 30.381 8.60554 30.6908 9.65703C30.9297 10.4765 30.8004 11.3826 30.373 12.1196C29.8719 12.9885 29.0524 13.6473 28.1422 14.0623C28.1844 14.0818 28.2275 14.1004 28.2706 14.1201C28.4358 14.0586 28.5828 13.9618 28.7294 13.8672C28.75 13.909 28.7908 13.9937 28.8113 14.0355C28.5768 14.1873 28.3205 14.3194 28.1473 14.545C27.7382 15.0384 27.6103 15.6803 27.3789 16.2604C27.1318 16.9339 26.6587 17.494 26.156 17.997C24.945 19.156 23.4533 19.9662 21.9618 20.7142C20.8953 21.23 19.8113 21.7098 18.7398 22.2157C17.8011 22.6487 16.926 23.2014 15.9843 23.6279C15.7755 23.7132 15.5675 23.8157 15.3401 23.8388C15.0188 23.8416 14.7009 23.7499 14.3788 23.7869C13.8149 23.8461 13.2905 24.0728 12.7595 24.2535C11.6595 24.6656 10.4956 24.8694 9.33662 25.0354C8.03207 25.2067 6.70554 25.2841 5.39642 25.1178C4.32699 24.9747 3.20875 24.669 2.42266 23.8944C2.00407 23.4529 1.65653 22.8697 1.71274 22.2431C1.69876 19.7262 2.37957 17.2439 2.1707 14.7228C2.08311 13.9525 1.9567 13.1562 1.54411 12.4826C1.21883 11.9161 0.754294 11.4108 0.597359 10.7641C0.446131 9.99521 0.433577 9.15994 0.788819 8.44153C1.23423 7.50944 2.25174 6.99992 2.67318 6.05174C2.90116 5.55972 2.92028 5.00843 2.88804 4.47774C3.99257 3.20183 5.53681 2.27086 7.21372 1.96459C8.35849 1.74497 9.51694 1.98407 10.6651 2.03967C12.9726 2.18787 15.2219 1.4037 17.5286 1.5135C18.59 1.58294 19.6264 1.88583 20.5862 2.33381C21.6454 2.82583 22.601 3.50161 23.5885 4.11585C23.9047 4.30216 24.2151 4.50597 24.5601 4.63977C23.5226 3.82962 22.4569 3.03754 21.2919 2.41342C20.0684 1.7636 18.701 1.36389 17.3094 1.32212C15.0034 1.24985 12.7464 1.91095 10.4403 1.87059C9.91784 1.85393 9.39054 1.82514 8.88151 1.70376Z" fill="#FCFCFC"/>
<path d="M14.5961 2.13979C16.4486 1.89895 18.3777 1.99362 20.1488 2.58743C21.2309 2.9487 22.2422 3.50415 23.0849 4.23689C23.3581 4.48954 23.6471 4.73522 23.8527 5.04204C22.4022 3.82332 20.6752 2.84786 18.757 2.44743C17.5944 2.19344 16.3878 2.14677 15.2002 2.24761C14.2738 2.34041 13.3944 2.68371 12.4586 2.7167C10.7411 2.82291 9.02272 2.6467 7.31901 2.45172C7.15156 2.43643 6.98498 2.40639 6.81696 2.41256C6.52192 2.55122 6.29712 2.80441 5.96338 2.87307C6.18502 2.52494 6.5827 2.29723 7.00992 2.24976C7.86149 2.15642 8.68726 2.4249 9.52535 2.50992C11.2262 2.65126 12.9188 2.3734 14.5961 2.13979Z" fill="#0D0D0D"/>
<path d="M15.9045 3.10187C17.5285 2.91463 19.2254 3.04576 20.7371 3.7671C21.4381 4.11907 22.1621 4.67657 22.3617 5.54614C21.8557 4.55295 20.8924 3.98164 19.9339 3.66568C18.4695 3.19098 16.9194 3.12437 15.4047 3.20719C15.5657 3.14567 15.7348 3.11567 15.9045 3.10187Z" fill="#0D0D0D"/>
<path d="M7.23473 3.83894C8.36145 3.46271 9.5875 3.44571 10.7415 3.69951C10.9534 3.74676 11.189 3.7482 11.3727 3.87956C11.496 3.94726 11.3843 4.08381 11.3589 4.17455C10.3304 3.75626 9.1927 3.61251 8.09862 3.78939C7.4379 3.91125 6.76086 4.19443 6.34383 4.75618C6.16289 4.9901 6.0765 5.27617 5.96338 5.5461C5.98505 5.12723 6.137 4.73343 6.31991 4.36382C6.5605 4.0962 6.90634 3.95907 7.23473 3.83894Z" fill="#0D0D0D"/>
<path d="M15.5458 3.58662C15.6591 3.46191 15.7874 3.57103 15.9015 3.62893C15.5255 3.86818 15.2442 4.26809 15.099 4.7259C15.0782 4.99887 15.1148 5.2798 15.0393 5.54609C14.871 5.20471 14.9015 4.79685 14.9302 4.42303C15.1689 4.17551 15.2975 3.82205 15.5458 3.58662Z" fill="#0D0D0D"/>
<path d="M10.4355 4.61203C10.5068 4.58557 10.5783 4.56142 10.6507 4.53784C10.7255 4.73883 10.8134 4.93235 10.933 5.0951C10.9279 5.58161 10.9381 6.06813 10.9279 6.55465C10.6275 6.20443 10.9115 5.64919 10.8055 5.21586C10.6906 5.0051 10.5232 4.84839 10.4355 4.61203Z" fill="#0D0D0D"/>
<path d="M17.2987 5.18238C18.4833 4.94857 19.7559 4.97441 20.8733 5.50909C21.5859 5.84473 22.2002 6.5077 22.3614 7.35619C22.1706 7.51985 21.9518 7.66629 21.7016 7.67275C21.1291 7.70105 20.5995 7.39864 20.0334 7.3568C18.4652 7.21898 16.9159 7.75705 15.5543 8.57138C15.2073 8.18621 14.6204 8.04992 14.4484 7.49709C14.316 7.1513 14.5597 6.83719 14.7432 6.58031C15.3922 5.77767 16.3608 5.39434 17.2987 5.18238Z" fill="#0D0D0D"/>
<path d="M15.9126 6.70444C16.4641 6.38412 17.0993 6.23548 17.7094 6.05029C17.6322 6.36035 17.8434 6.62311 17.8893 6.9184C17.4697 6.87285 17.0525 6.98071 16.6939 7.18441C16.3076 7.39186 15.8748 7.6839 15.41 7.50973C15.3648 7.16114 15.6151 6.8716 15.9126 6.70444Z" fill="#FCFCFC"/>
<path d="M7.1335 6.15731C8.01707 5.93152 8.95299 6.08806 9.80053 6.39357C10.372 6.61907 10.9687 6.91178 11.3102 7.46228C11.6676 7.35521 12.0718 7.1943 12.4234 7.41165C12.4164 7.55684 12.4214 7.72909 12.3038 7.8318C12.0234 8.11928 11.555 8.08058 11.3037 8.41344C11.3028 8.93485 11.3059 9.45625 11.3014 9.97766C10.8649 10.4799 10.0404 10.5782 9.83375 11.2896C10.1831 11.9152 10.6149 12.5885 11.3124 12.8268C11.5933 12.8492 11.7743 12.5818 12.0119 12.4738C12.0986 12.5268 12.185 12.5812 12.2709 12.6362C12.1346 12.9842 11.9674 13.3587 11.6386 13.5524C11.4233 13.6746 11.1689 13.5949 10.9738 13.4704C10.2926 13.0296 9.89708 12.2562 9.22321 11.8064C9.08782 11.9591 8.93582 12.1677 8.71176 12.1462C8.59861 11.9926 8.55385 11.8005 8.4725 11.6292C7.83973 11.7915 7.32378 12.441 6.62908 12.3234C8.16118 11.6903 9.36086 10.4909 10.6552 9.47429C10.6552 9.07422 10.6552 8.67356 10.6552 8.2729C10.0477 7.89727 9.32567 7.82366 8.6352 7.75353C7.73812 7.65984 6.80641 7.65752 5.96338 7.28596C6.08667 6.70199 6.58883 6.28911 7.1335 6.15731Z" fill="#0D0D0D"/>
<path d="M20.871 6.57428C21.0282 6.52488 21.2033 6.56173 21.3233 6.76759C21.3764 6.8346 21.3681 6.95769 21.3681 7.05888C21.2546 6.88106 21.1069 6.888 20.9667 6.85222C20.8885 6.83861 20.887 6.67868 20.871 6.57428Z" fill="#FCFCFC"/>
<path d="M6.95679 6.66531C7.30672 6.70821 7.65335 6.55835 8.00328 6.55533C8.17164 6.54324 8.3279 6.70398 8.44757 6.95779C8.15541 6.93905 7.86463 6.98559 7.57384 7.04602C7.35679 7.08288 7.10754 7.06414 6.95679 6.66531Z" fill="#FCFCFC"/>
<path d="M22.8586 6.56545C23.3718 6.47367 23.8314 7.00405 24.3493 6.83613C24.2635 7.59956 23.5238 7.77043 23.1705 7.3073C23.4059 7.25316 23.7218 7.41346 23.8701 7.05269C23.515 7.01166 23.129 6.95414 22.8586 6.56545Z" fill="#0D0D0D"/>
<path d="M3.23711 7.18773C3.72025 7.27041 4.20179 7.1554 4.67798 7.07643C4.9591 7.02207 5.26694 7.09102 5.46656 7.3202C4.60743 7.19946 3.71063 7.21462 2.89453 7.55824C2.21178 7.82919 1.59048 8.3771 1.33608 9.12358C1.1036 9.78135 1.17254 10.5152 1.37162 11.1722C1.41812 11.3098 1.45046 11.4717 1.56937 11.5613C1.97849 11.8923 2.53859 11.8943 2.94637 12.2233C3.06956 12.3103 3.03669 12.47 3.03188 12.605C2.84509 12.476 2.66953 12.3252 2.46136 12.2371C2.06881 12.054 1.61587 11.9661 1.30268 11.6308C1.00099 10.9195 0.907194 10.0926 1.08089 9.32929C1.30054 8.33905 2.03113 7.52448 2.91297 7.17142C3.01826 7.12993 3.12969 7.18172 3.23711 7.18773Z" fill="#0D0D0D"/>
<path d="M25.8402 7.14479C26.2175 7.02734 26.6211 7.06863 27.0119 7.05898C27.7429 7.05335 28.5221 7.21746 29.0739 7.71034C29.5711 8.16702 29.7639 8.84385 29.8035 9.4877C29.839 9.85508 29.7866 10.2216 29.7758 10.5882C29.7348 10.5434 29.6936 10.4989 29.6526 10.4549C29.7113 9.88458 29.6958 9.30777 29.6357 8.73873C29.3952 8.17184 28.9526 7.65403 28.3498 7.42958C27.5515 7.12012 26.6757 7.23463 25.8402 7.14479Z" fill="#0D0D0D"/>
<path d="M22.8586 7.62755C23.0526 7.42749 23.2664 7.72564 23.3561 8.06652C23.1627 8.08012 22.9919 7.88637 22.8586 7.62755Z" fill="#0D0D0D"/>
<path d="M24.8413 7.64459C25.792 7.44336 26.8358 7.6086 27.6354 8.20361C28.3606 8.73174 28.866 9.62846 28.8189 10.5683C28.8049 11.3697 28.3704 12.099 27.7963 12.605C27.5694 12.0852 27.8697 11.57 28.0354 11.0887C28.2491 10.5413 28.1309 9.91727 27.8763 9.40893C27.6251 8.8952 27.145 8.53051 26.6179 8.38085C26.1487 8.2288 25.6517 8.2489 25.1679 8.27949C24.6761 8.77793 24.0191 9.04275 23.3684 9.22629C22.5146 9.45122 21.6176 9.5202 20.7461 9.38194C20.1596 9.27608 19.5393 9.05565 19.1639 8.54371C18.9606 8.2789 18.8952 7.93491 18.8834 7.60322C19.6448 7.71988 20.0882 8.49152 20.8026 8.72724C21.4524 8.94227 22.1725 8.8685 22.7994 8.60368C23.492 8.31188 24.0959 7.79664 24.8413 7.64459Z" fill="#0D0D0D"/>
<path d="M2.11174 8.73507C2.50313 8.40288 2.99956 8.23501 3.47834 8.06714C3.23237 8.5808 2.47351 8.51193 2.27033 9.06047C2.10725 9.55314 2.30654 10.0931 2.1255 10.5882C2.07972 10.5223 2.03453 10.4573 1.98755 10.3922C1.99623 9.83745 2.08421 9.28833 2.11174 8.73507Z" fill="#0D0D0D"/>
<path d="M3.14159 8.72897C3.77221 8.46507 4.5023 8.57721 5.14654 8.74347C5.73453 8.90533 6.30919 9.14074 6.76454 9.51133C7.02241 9.38935 7.23972 9.20548 7.51358 9.10811C7.67346 9.06563 7.82208 9.12934 7.95087 9.20548C7.93399 9.48207 7.81971 9.77963 7.51565 9.90912C6.9102 10.1642 6.21593 10.057 5.56725 10.0834C5.54445 9.74467 5.3526 9.37071 4.94492 9.28058C4.11416 9.09878 3.30709 9.45876 2.48462 9.50797C2.57314 9.18502 2.78335 8.87011 3.14159 8.72897Z" fill="#0D0D0D"/>
<path d="M24.9783 9.20544C25.0695 9.08339 25.2334 9.09469 25.3686 9.07568C25.3827 9.41206 25.4256 9.76882 25.6387 10.0454C26.0728 10.6358 26.894 10.7656 27.3312 11.3538C26.9766 11.6761 26.4979 11.4248 26.0879 11.3995C25.8684 11.3606 25.8067 11.6224 25.7163 11.7662C25.578 11.9899 25.5644 12.2585 25.667 12.4984C25.7552 12.6464 25.5516 12.71 25.4812 12.8051C24.7249 13.5627 24.2165 14.5148 23.5806 15.3652C23.0808 16.0551 22.4997 16.6926 21.8196 17.2116C20.6547 18.1023 19.3602 18.8315 17.9817 19.3437C16.6835 19.8332 15.2891 19.9762 13.9142 20.0856C12.3285 20.1914 10.7355 20.1991 9.14982 20.087C8.04332 19.9969 6.92904 19.8718 5.86567 19.5426C5.43342 19.4007 4.98226 19.2338 4.67462 18.8853C4.21734 18.3767 3.97089 17.7238 3.7951 17.0755C3.44268 15.6749 3.39706 14.2043 3.59706 12.7783C3.68968 12.1042 4.02374 11.5011 4.34334 10.9108C4.49799 10.6647 4.41594 10.36 4.51134 10.0983C4.56781 9.9468 4.7564 10.0319 4.87544 10.0206C5.16027 10.6223 4.98921 11.3141 5.19643 11.9326C6.30515 13.0257 7.85947 13.5577 9.38625 13.7486C11.5936 14.0054 13.8216 13.6676 15.9665 13.1522C19.0462 12.3882 22.0076 11.2196 24.8787 9.89032C24.8851 9.66166 24.839 9.40489 24.9783 9.20544Z" fill="#0D0D0D"/>
<path d="M14.9077 10.649C14.927 10.2255 15.3375 10.0445 15.6649 10.0912C16.0779 10.1451 16.5278 10.2669 16.8281 10.6121C16.9241 10.881 16.8907 11.1881 16.8855 11.4726C16.8461 11.8871 16.7218 12.3857 16.3487 12.5643C16.1722 12.6611 15.9824 12.5622 15.8093 12.5065C15.8093 12.3766 15.7847 12.2384 15.8388 12.1176C15.9403 11.8706 16.215 11.7753 16.2933 11.5116C16.3547 11.3277 16.2986 11.1347 16.2685 10.9514C15.8301 10.7617 15.3361 10.8758 14.9077 10.649Z" fill="#0D0D0D"/>
<path d="M16.9468 10.5763C16.8871 10.4093 16.8364 10.1607 17.0531 10.084C17.1102 10.0998 17.2228 10.1298 17.2793 10.1459C17.2034 10.2012 17.1274 10.2556 17.0512 10.3104C17.0662 10.5114 17.2196 10.6777 17.4223 10.7198C18.1638 10.8979 18.9357 10.6604 19.6808 10.7915C19.8442 10.8061 19.8965 10.9508 19.8703 11.0924C19.1833 10.722 18.3811 11.0173 17.6443 10.9493C17.3779 10.9326 17.0416 10.8534 16.9468 10.5763Z" fill="#0D0D0D"/>
<path d="M1.98755 10.5884C2.02156 10.5999 2.09066 10.6233 2.12521 10.6352C2.30821 10.8368 2.70904 10.9326 2.98138 11.0926C2.74089 11.0768 2.48312 11.053 2.29985 10.9598C2.10038 10.8671 2.03263 10.7221 1.98755 10.5884Z" fill="#0D0D0D"/>
<path d="M22.4212 11.8643C23.4301 11.5225 24.2384 10.6354 25.3429 10.5884C25.3601 11.1981 25.0825 11.7921 24.6315 12.1867C24.0033 12.7464 23.1737 12.9944 22.3622 13.1093C22.5608 12.7163 22.3587 12.2792 22.4212 11.8643Z" fill="#FCFCFC"/>
<path d="M29.6672 10.5884C29.7168 10.6448 29.7661 10.702 29.8153 10.7584C29.722 11.2939 29.6083 11.827 29.4523 12.3518C28.9178 12.6223 28.4198 12.9795 27.7991 13.0932C27.6404 13.1352 27.4826 13.0864 27.3307 13.0488C27.9269 12.966 28.5334 12.7689 28.9274 12.3615C29.4072 11.8675 29.6152 11.2187 29.6672 10.5884Z" fill="#0D0D0D"/>
<path d="M13.5145 11.1881C14.133 11.017 14.7934 11.0917 15.3979 11.2853C15.4185 11.5662 15.3973 11.8556 15.2491 12.1009C14.5836 11.4924 13.6649 12.1547 12.92 11.7958C12.9581 11.481 13.2267 11.2614 13.5145 11.1881Z" fill="#0D0D0D"/>
<path d="M17.3929 13.2141C18.8925 12.8722 20.3506 12.3946 21.8652 12.1008C21.8558 12.6803 21.5415 13.256 20.9792 13.5654C19.9922 14.1219 18.7788 14.181 17.7335 14.6218C17.6016 14.156 17.5345 13.6776 17.3929 13.2141Z" fill="#FCFCFC"/>
<path d="M4.4735 14.3965C4.48648 13.7372 4.90426 13.1355 5.35135 12.605C5.6222 13.4398 5.36307 14.3137 5.09181 15.126C4.73933 14.9969 4.45006 14.7291 4.4735 14.3965Z" fill="#FCFCFC"/>
<path d="M23.1424 13.9772C23.5112 13.767 23.9271 13.6435 24.3498 13.6133C23.6362 14.1947 23.4651 15.3152 22.5203 15.6301C22.412 15.3911 22.321 15.1279 22.3816 14.8625C22.4686 14.4623 22.7994 14.1708 23.1424 13.9772Z" fill="#FCFCFC"/>
<path d="M6.15064 15.4242C6.06821 14.8385 5.7018 14.0741 6.29603 13.6133C6.60824 13.8974 7.02722 14.0381 7.44912 14.1309C7.49553 14.4933 7.20409 14.778 7.08758 15.1039C7.0204 15.2864 7.12166 15.4663 7.20085 15.6301C6.8617 15.5225 6.52353 15.3473 6.15064 15.4242Z" fill="#FCFCFC"/>
<path d="M14.2076 14.213C15.1595 13.9875 16.1132 13.7659 17.0795 13.6133C17.2167 14.1006 17.2633 14.6093 17.3927 15.0979C16.651 15.1819 15.9479 15.4675 15.2111 15.5776C14.7823 15.6462 14.3466 15.6395 13.9156 15.6038C13.92 15.1709 13.9079 14.7389 13.9192 14.3065C13.9998 14.2421 14.1126 14.2441 14.2076 14.213Z" fill="#FCFCFC"/>
<path d="M7.45386 15.3091C7.80994 14.9886 7.59897 14.4605 7.91177 14.1177C8.6882 14.5188 9.61993 14.2838 10.4355 14.5626C10.1494 14.8628 10.3785 15.2751 10.3327 15.6303C9.36759 15.6282 8.36395 15.6561 7.45386 15.3091Z" fill="#FCFCFC"/>
<path d="M11.1225 14.3398C11.7311 14.4525 12.3136 14.1194 12.9184 14.1177C12.9215 14.6209 12.9191 15.1251 12.9203 15.6283C12.2629 15.63 11.6062 15.6323 10.9491 15.6273C10.8628 15.1661 11.1456 14.7946 11.1225 14.3398Z" fill="#FCFCFC"/>
<path d="M18.4042 15.9122C19.4602 15.6378 20.454 15.1532 21.4157 14.6218C21.328 15.1952 21.4513 15.8169 21.8648 16.2177C20.8918 16.8199 20.052 17.6517 19.0224 18.1512C19.0097 17.4957 18.4587 17.0495 18.3981 16.4103C18.3744 16.2442 18.392 16.0775 18.4042 15.9122Z" fill="#FCFCFC"/>
<path d="M14.4379 17.0591C15.5721 16.9233 16.6425 16.5234 17.7012 16.1343C17.6727 16.4942 17.6647 16.8728 17.8404 17.2037C18.0437 17.6031 18.3269 17.9771 18.3861 18.4289C17.3917 18.6601 16.437 19.0576 15.4095 19.1468C15.0956 19.1819 14.7795 19.1398 14.4737 19.0749C14.5994 18.4054 14.3267 17.7326 14.4379 17.0591Z" fill="#FCFCFC"/>
<path d="M4.51164 17.0438C4.46021 16.9173 4.46762 16.7737 4.48592 16.6387C4.60643 16.9916 4.81497 17.2843 4.93505 17.6374C4.99868 17.8037 4.96577 17.9906 4.90868 18.1513C4.84134 17.7482 4.645 17.4125 4.51164 17.0438Z" fill="#FCFCFC"/>
<path d="M5.88567 17.1431C6.43892 17.6755 6.72929 18.4265 6.95701 19.1599C6.52664 19.0435 6.07365 18.9909 5.67141 18.7842C5.55098 18.7307 5.51338 18.5928 5.46631 18.4797C5.53202 18.5403 5.59621 18.6018 5.6604 18.6653C5.79825 18.6249 5.95934 18.6092 6.05715 18.4845C6.21517 18.0104 5.5956 17.596 5.88567 17.1431Z" fill="#FCFCFC"/>
<path d="M10.9326 17.5063C11.892 17.5919 12.8551 17.4282 13.7718 17.1431C13.82 17.9214 13.5928 18.7478 13.914 19.4868C13.0656 19.776 12.1603 19.618 11.2847 19.6438C11.1978 18.9259 11.0275 18.2225 10.9326 17.5063Z" fill="#FCFCFC"/>
<path d="M6.95679 17.6485C7.32038 17.6252 7.62181 17.882 7.99087 17.8289C7.97214 18.3164 8.3529 18.6972 8.44757 19.1596C8.10322 19.1136 7.73781 19.0995 7.4382 18.9179C7.47747 18.8038 7.54665 18.68 7.48345 18.5609C7.36147 18.2318 7.0707 17.9822 6.95679 17.6485Z" fill="#FCFCFC"/>
<path d="M8.94495 17.7477C9.40566 17.6257 9.9411 17.555 10.3445 17.896C10.8044 18.3178 10.8642 19.0383 10.9327 19.6576C10.4726 19.6791 10.0065 19.6506 9.56691 19.4813C9.44343 18.8669 9.11075 18.3448 8.94495 17.7477Z" fill="#FCFCFC"/>
<path d="M20.387 19.4991C21.1749 19.123 21.9856 18.7394 22.8585 18.6553C21.4496 19.1809 20.1461 19.9548 18.7921 20.609C17.0422 21.4598 15.152 22.1729 13.1936 22.0847C12.4714 21.996 11.7517 22.1517 11.0281 22.1441C9.63811 22.127 8.23145 22.3065 6.85437 22.0239C6.28433 21.8952 5.69004 21.6672 5.31865 21.1725C5.12648 20.9348 5.02645 20.6363 4.96924 20.3355C5.46997 21.2125 6.42522 21.632 7.34045 21.8485C8.47801 22.1012 9.65333 22.1849 10.8131 22.0788C12.3683 22.0095 13.9437 22.0239 15.4668 21.6411C17.2051 21.2004 18.7834 20.2964 20.387 19.4991Z" fill="#0D0D0D"/>
<path d="M21.9137 19.6512C22.6946 19.253 23.4582 18.7247 24.3496 18.6553C23.3814 19.3299 22.3264 19.8619 21.2655 20.3623C17.0892 22.2795 12.509 23.1875 7.94807 23.1927C7.04027 23.1979 6.11494 23.1587 5.24221 22.8757C4.54982 22.6514 3.90278 22.2012 3.53738 21.541C3.52653 21.2623 3.41911 20.9534 3.52514 20.6897C3.56076 20.6684 3.632 20.6263 3.66762 20.6047C3.67486 20.9439 3.66985 21.2836 3.67124 21.6228C4.06447 22.0333 4.56095 22.3229 5.08414 22.5176C5.88702 22.8233 6.74194 22.9457 7.59102 23.0099C8.92544 23.0931 10.2634 23.0076 11.5915 22.8625C15.1862 22.4718 18.6899 21.33 21.9137 19.6512Z" fill="#0D0D0D"/>
<path d="M8.94495 20.77C9.94019 20.791 10.936 20.7313 11.9296 20.8148C12.5865 20.8182 13.2943 20.3569 13.9143 21.0752C12.8312 20.9592 11.7493 21.1709 10.6659 21.1763C10.0916 21.1383 9.50107 21.1743 8.94495 20.77Z" fill="#0D0D0D"/>
<g filter="url(#filter0_d_277_249)">
<path d="M36.69 4.58H41.27L44.24 11.74H43.99L46.96 4.58H51.36V18H48.14V8.45H48.58L45.13 16.75H43.06L39.63 8.47H39.89V18H36.69V4.58ZM54.7364 18V4.58H63.7064V7.35H57.9364V9.93H63.3464V12.71H57.9364V15.2H63.7064V18H54.7364ZM67.0025 4.58H71.5825L74.5525 11.74H74.3025L77.2725 4.58H81.6725V18H78.4525V8.45H78.8925L75.4425 16.75H73.3725L69.9425 8.47H70.2025V18H67.0025V4.58ZM85.0489 18V4.58H94.0189V7.35H88.2489V9.93H93.6589V12.71H88.2489V15.2H94.0189V18H85.0489ZM107.786 18.32C106.659 18.32 105.649 18.02 104.756 17.42C103.869 16.82 103.166 15.9933 102.646 14.94C102.132 13.88 101.876 12.6633 101.876 11.29C101.876 10.2567 102.026 9.31333 102.326 8.46C102.632 7.6 103.066 6.86 103.626 6.24C104.192 5.61333 104.866 5.13 105.646 4.79C106.432 4.45 107.306 4.28 108.266 4.28C109.719 4.28 110.902 4.61 111.816 5.27C112.729 5.92333 113.379 6.95 113.766 8.35L110.366 8.96C110.139 8.40667 109.839 7.97 109.466 7.65C109.092 7.33 108.632 7.17 108.086 7.17C107.566 7.17 107.096 7.33667 106.676 7.67C106.262 8.00333 105.936 8.47667 105.696 9.09C105.456 9.70333 105.336 10.4367 105.336 11.29C105.336 12.1367 105.456 12.87 105.696 13.49C105.936 14.1033 106.262 14.5767 106.676 14.91C107.096 15.2433 107.566 15.41 108.086 15.41C108.599 15.41 109.056 15.3033 109.456 15.09C109.862 14.87 110.179 14.5767 110.406 14.21C110.639 13.8367 110.756 13.4267 110.756 12.98H111.316C111.316 14.0733 111.186 15.02 110.926 15.82C110.666 16.62 110.276 17.2367 109.756 17.67C109.236 18.1033 108.579 18.32 107.786 18.32ZM111.156 18L110.756 15.24V12.86L108.086 12.84V10.88H113.796V18H111.156ZM116.924 18V4.58H125.894V7.35H120.124V9.93H125.534V12.71H120.124V15.2H125.894V18H116.924ZM129.13 4.58H132.47L137.86 12.7H137.64V4.58H140.84V18H137.75L131.8 9.08H132.33V18H129.13V4.58ZM144.209 18V4.58H153.179V7.35H147.409V9.93H152.819V12.71H147.409V15.2H153.179V18H144.209ZM156.475 18V4.58H161.715C163.395 4.58 164.698 4.96667 165.625 5.74C166.558 6.50667 167.025 7.53667 167.025 8.83C167.025 10.0967 166.558 11.1133 165.625 11.88C164.698 12.64 163.395 13.02 161.715 13.02H159.675V18H156.475ZM163.475 18L160.205 11.52H163.585L167.665 18H163.475ZM159.675 10.94H161.355C162.148 10.94 162.742 10.7767 163.135 10.45C163.535 10.1167 163.735 9.69333 163.735 9.18C163.735 8.64667 163.565 8.21 163.225 7.87C162.892 7.52333 162.388 7.35 161.715 7.35H159.675V10.94ZM168.661 18L173.181 4.58H177.251L181.521 18H178.151L177.421 15.64H172.791L172.061 18H168.661ZM173.601 13.27H176.691L175.171 8.36L173.601 13.27ZM181.018 7.35V4.58H192.068V7.35H187.438L188.158 6.63V18H184.958V6.63L185.678 7.35H181.018ZM199.388 18.32C198.114 18.32 197.001 18.0533 196.048 17.52C195.101 16.98 194.364 16.1867 193.838 15.14C193.311 14.0867 193.048 12.79 193.048 11.25C193.048 9.67 193.311 8.36667 193.838 7.34C194.364 6.30667 195.101 5.54 196.048 5.04C197.001 4.53333 198.114 4.28 199.388 4.28C200.674 4.28 201.794 4.54333 202.747 5.07C203.708 5.59667 204.451 6.37667 204.978 7.41C205.504 8.44333 205.768 9.72333 205.768 11.25C205.768 12.8167 205.504 14.1267 204.978 15.18C204.451 16.2267 203.708 17.0133 202.747 17.54C201.794 18.06 200.674 18.32 199.388 18.32ZM199.388 15.45C200.321 15.45 201.068 15.0833 201.628 14.35C202.188 13.61 202.467 12.57 202.467 11.23C202.467 9.97 202.188 8.97667 201.628 8.25C201.068 7.51667 200.321 7.15 199.388 7.15C198.481 7.15 197.748 7.51667 197.188 8.25C196.628 8.97667 196.348 9.97667 196.348 11.25C196.348 12.5767 196.628 13.61 197.188 14.35C197.748 15.0833 198.481 15.45 199.388 15.45ZM208.311 18V4.58H213.551C215.231 4.58 216.534 4.96667 217.461 5.74C218.394 6.50667 218.861 7.53667 218.861 8.83C218.861 10.0967 218.394 11.1133 217.461 11.88C216.534 12.64 215.231 13.02 213.551 13.02H211.511V18H208.311ZM215.311 18L212.041 11.52H215.421L219.501 18H215.311ZM211.511 10.94H213.191C213.984 10.94 214.578 10.7767 214.971 10.45C215.371 10.1167 215.571 9.69333 215.571 9.18C215.571 8.64667 215.401 8.21 215.061 7.87C214.728 7.52333 214.224 7.35 213.551 7.35H211.511V10.94Z" fill="black"/>
</g>
<defs>
<filter id="filter0_d_277_249" x="32.6899" y="4.28003" width="190.811" height="22.04" filterUnits="userSpaceOnUse" color-interpolation-filters="sRGB">
<feFlood flood-opacity="0" result="BackgroundImageFix"/>
<feColorMatrix in="SourceAlpha" type="matrix" values="0 0 0 0 0 0 0 0 0 0 0 0 0 0 0 0 0 0 127 0" result="hardAlpha"/>
<feOffset dy="4"/>
<feGaussianBlur stdDeviation="2"/>
<feComposite in2="hardAlpha" operator="out"/>
<feColorMatrix type="matrix" values="0 0 0 0 0 0 0 0 0 0 0 0 0 0 0 0 0 0 0.25 0"/>
<feBlend mode="normal" in2="BackgroundImageFix" result="effect1_dropShadow_277_249"/>
<feBlend mode="normal" in="SourceGraphic" in2="effect1_dropShadow_277_249" result="shape"/>
</filter>
</defs>
</svg>
