<?xml version="1.0" encoding="UTF-8"?>
<svg id="Warstwa_2" data-name="Warstwa 2" xmlns="http://www.w3.org/2000/svg" viewBox="0 0 66.36 22.14">
  <defs>
    <style>
      .cls-1 {
        fill: #1d1d1b;
      }
    </style>
  </defs>
  <g id="logotypy">
    <g>
      <path class="cls-1" d="M15.48,6.04h-.82s-.02,0-.04,0c-.29-.02-.59,.08-.82,.29l-2.67,2.44s-.02,.01-.02,.02l-3.8,3.47s0,0,0,0c-.02,.02-.04,.04-.06,.06l-.12,.13c-.41,.45-.38,1.16,.07,1.57l1.35,1.24,.11-.12,2.66-2.43h0s2.23-2.03,2.23-2.03v10.25c0,.61,.5,1.11,1.11,1.11h1.93V7.15c0-.61-.5-1.11-1.11-1.11Z"/>
      <path class="cls-1" d="M6.64,9.35l-3.33-3.04c-.23-.21-.53-.3-.82-.29-.01,0-.02,0-.04,0h-.82c-.61,0-1.11,.5-1.11,1.11v14.89h1.93c.61,0,1.11-.5,1.11-1.11V10.66l1.84,1.68,1.3-1.42c.41-.45,.38-1.16-.07-1.57Z"/>
      <circle class="cls-1" cx="2.04" cy="2.22" r="2.04"/>
      <circle class="cls-1" cx="15.04" cy="2.22" r="2.04"/>
      <g>
        <path class="cls-1" d="M25.22,4.72V0h1.73c.46,0,.84,.14,1.13,.41,.29,.27,.44,.62,.44,1.04s-.14,.76-.43,1.01c-.29,.26-.67,.39-1.13,.39h-1.13v1.87h-.6Zm.6-2.44h1.06c.33,0,.58-.07,.76-.22,.18-.15,.27-.36,.27-.63s-.09-.49-.27-.64c-.18-.15-.43-.22-.76-.22h-1.06v1.71Z"/>
        <path class="cls-1" d="M29.01,1.4h.6l-.19,.87,.19,.06v2.38h-.6V1.4Zm1.62,.55c-.28,0-.52,.08-.72,.23-.2,.16-.3,.36-.3,.6l-.09-.12c0-.39,.11-.7,.32-.93,.21-.23,.5-.35,.85-.35h.25v.57h-.3Z"/>
        <path class="cls-1" d="M31.09,3.04c0-.57,.14-1.01,.43-1.32,.29-.31,.67-.46,1.16-.46,.46,0,.84,.16,1.14,.48s.46,.75,.46,1.31-.14,1.01-.43,1.32-.68,.47-1.16,.47-.88-.16-1.16-.47c-.29-.31-.43-.76-.43-1.32Zm.61,0c0,.4,.09,.72,.26,.93,.17,.22,.41,.33,.72,.33s.55-.11,.73-.33c.18-.22,.26-.53,.26-.93s-.09-.71-.26-.93c-.18-.22-.42-.33-.73-.33s-.55,.11-.72,.33c-.17,.22-.26,.53-.26,.93Z"/>
        <path class="cls-1" d="M34.61,5.38c0-.25,.1-.44,.31-.58,.2-.14,.48-.22,.83-.22v-.09c-.51-.1-.76-.26-.76-.5,0-.13,.09-.23,.27-.3s.47-.09,.87-.09l.17,.12c-.25,0-.42,0-.52,.03-.1,.02-.15,.05-.15,.1,0,.1,.21,.2,.62,.3,.51,.12,.88,.28,1.09,.45,.21,.18,.32,.4,.32,.66,0,.33-.13,.58-.4,.77-.27,.19-.64,.28-1.1,.28s-.84-.09-1.11-.26c-.27-.17-.41-.4-.41-.69Zm.12-2.93c0-.36,.12-.65,.36-.87s.57-.32,.98-.32,.78,.12,1.04,.35c.26,.23,.39,.54,.39,.93,0,.35-.11,.64-.34,.86-.23,.22-.52,.33-.89,.33-.07-.03-.25-.05-.56-.06v-.13c-.31-.02-.56-.13-.73-.32-.18-.19-.26-.45-.26-.76Zm.48,2.78c0,.17,.08,.3,.25,.4,.16,.1,.39,.15,.68,.15s.5-.05,.66-.14,.23-.23,.23-.4c0-.12-.05-.22-.15-.3-.1-.07-.33-.17-.67-.28-.3,0-.54,.05-.72,.15-.18,.1-.27,.24-.27,.42Zm.12-2.74c0,.24,.07,.42,.21,.55,.14,.13,.33,.19,.58,.19s.44-.06,.58-.19c.14-.13,.21-.31,.21-.55s-.07-.41-.21-.53c-.14-.12-.33-.19-.58-.19s-.45,.06-.58,.19c-.14,.12-.21,.3-.21,.53Zm1.82-1.37c-.17,0-.25,.06-.25,.19,0,.06,.05,.14,.16,.26l-.37-.12,.08-.15c-.13-.09-.2-.19-.2-.31,0-.11,.05-.2,.15-.26,.1-.06,.24-.09,.41-.09h.6v.49h-.58Z"/>
        <path class="cls-1" d="M38.05,1.4h.6l-.19,.87,.19,.06v2.38h-.6V1.4Zm1.62,.55c-.28,0-.52,.08-.72,.23-.2,.16-.3,.36-.3,.6l-.09-.12c0-.39,.11-.7,.32-.93,.21-.23,.5-.35,.85-.35h.25v.57h-.3Z"/>
        <path class="cls-1" d="M43.15,4.72h-.61l.19-.86-.19-.08v-1.25c0-.21-.07-.38-.22-.51-.15-.13-.34-.19-.58-.19s-.44,.07-.59,.21c-.15,.14-.24,.33-.27,.55l-.59-.1c.05-.35,.21-.64,.47-.87,.26-.23,.59-.34,1-.34s.74,.11,1,.34c.26,.23,.39,.5,.39,.83v2.27Zm-2.25-.87c0,.15,.06,.26,.19,.34,.13,.08,.29,.12,.5,.12,.28,0,.51-.08,.69-.24,.18-.16,.26-.36,.26-.61h.12c0,.42-.12,.75-.35,1.01-.23,.25-.53,.38-.91,.38-.32,0-.59-.09-.8-.26-.21-.18-.31-.4-.31-.67,0-.24,.07-.43,.22-.57,.15-.14,.37-.26,.68-.34l1.35-.34v.45l-1.14,.27c-.34,.08-.5,.24-.5,.48Z"/>
        <path class="cls-1" d="M43.81,1.4h.6l-.19,.88,.19,.06v2.38h-.6V1.4Zm2.14,1.27c0-.26-.06-.48-.19-.63s-.31-.24-.54-.24c-.25,0-.45,.08-.6,.25-.14,.16-.22,.38-.22,.64h-.1c0-.42,.1-.76,.3-1.02,.2-.26,.47-.39,.81-.39,.25,0,.46,.1,.66,.31,.19,.2,.29,.44,.29,.71v.04l.19,.05v2.34h-.61V2.67Zm2.14,0c0-.27-.07-.48-.2-.64-.13-.16-.33-.23-.58-.23s-.43,.08-.56,.25c-.13,.16-.2,.38-.2,.64h-.11c0-.43,.1-.77,.3-1.02,.2-.25,.48-.38,.83-.38,.33,0,.6,.12,.81,.38,.21,.25,.31,.56,.31,.94v2.13h-.61V2.67Z"/>
        <path class="cls-1" d="M27.86,12.52l1.62-3.86h.84v4.72h-.58v-3.86l-1.59,3.86h-.76l-1.56-3.86v3.86h-.6v-4.72h.86l1.59,3.86,.09,.3,.1-.3Z"/>
        <path class="cls-1" d="M31.47,11.87c.03,.35,.13,.61,.31,.8,.18,.19,.43,.28,.74,.28,.25,0,.46-.06,.62-.19,.17-.13,.27-.31,.32-.53l.58,.1c-.08,.37-.26,.65-.53,.85-.27,.2-.6,.31-.99,.31-.52,0-.93-.16-1.22-.48-.3-.32-.44-.76-.44-1.32s.14-.99,.43-1.31,.67-.48,1.16-.48,.89,.16,1.18,.48c.28,.32,.43,.74,.43,1.26v.22h-2.57Zm.01-.45h1.95c0-.28-.09-.52-.28-.7s-.42-.28-.71-.28-.49,.08-.65,.26c-.17,.17-.27,.41-.31,.72Z"/>
        <path class="cls-1" d="M34.59,10.05h.6l-.19,.88,.19,.06v2.38h-.6v-3.32Zm2.29,1.25c0-.25-.08-.46-.23-.62s-.35-.23-.59-.23-.46,.08-.62,.24-.25,.37-.25,.62h-.1c0-.4,.11-.73,.34-.99s.52-.39,.88-.39c.33,0,.61,.12,.84,.37,.23,.25,.34,.55,.34,.92v2.15h-.61v-2.07Z"/>
        <path class="cls-1" d="M39.04,10.57v1.7c0,.25,.03,.41,.09,.48s.19,.09,.4,.09h.59v.53h-.75c-.31,0-.54-.07-.7-.22-.16-.15-.24-.41-.24-.79v-1.79h-.66v-.52h.66v-.97l.61-.08v1.05h1.08v.52h-1.08Z"/>
        <path class="cls-1" d="M40.28,11.7c0-.57,.14-1.01,.43-1.32,.29-.31,.67-.46,1.16-.46,.46,0,.84,.16,1.14,.48s.46,.75,.46,1.31-.14,1.01-.43,1.32-.68,.47-1.16,.47-.88-.16-1.16-.47c-.29-.31-.43-.76-.43-1.32Zm.61,0c0,.4,.09,.72,.26,.93,.17,.22,.41,.33,.72,.33s.55-.11,.73-.33c.18-.22,.26-.53,.26-.93s-.09-.71-.26-.93c-.18-.22-.42-.33-.73-.33s-.55,.11-.72,.33c-.17,.22-.26,.53-.26,.93Z"/>
        <path class="cls-1" d="M44.01,10.05h.6l-.19,.87,.19,.06v2.38h-.6v-3.32Zm1.62,.55c-.28,0-.52,.08-.72,.23-.2,.16-.3,.36-.3,.6l-.09-.12c0-.39,.11-.7,.32-.93,.21-.23,.5-.35,.85-.35h.25v.57h-.3Z"/>
        <path class="cls-1" d="M46.4,9.44c-.07-.07-.11-.16-.11-.26s.04-.19,.11-.26,.16-.11,.26-.11,.19,.04,.26,.11,.11,.16,.11,.26-.04,.19-.11,.26c-.07,.07-.16,.11-.26,.11s-.19-.04-.26-.11Zm-.03,.61h.6v3.32h-.6v-3.32Z"/>
        <path class="cls-1" d="M47.6,10.05h.6l-.19,.88,.19,.06v2.38h-.6v-3.32Zm2.29,1.25c0-.25-.08-.46-.23-.62s-.35-.23-.59-.23-.46,.08-.62,.24-.25,.37-.25,.62h-.1c0-.4,.11-.73,.34-.99s.52-.39,.88-.39c.33,0,.61,.12,.84,.37,.23,.25,.34,.55,.34,.92v2.15h-.61v-2.07Z"/>
        <path class="cls-1" d="M50.95,14.03c0-.25,.1-.44,.31-.58,.2-.14,.48-.22,.83-.22v-.09c-.51-.1-.76-.26-.76-.5,0-.13,.09-.23,.27-.3s.47-.09,.87-.09l.17,.12c-.25,0-.42,0-.52,.03-.1,.02-.15,.05-.15,.1,0,.1,.21,.2,.62,.3,.51,.12,.88,.28,1.09,.45,.21,.18,.32,.4,.32,.66,0,.33-.13,.58-.4,.77-.27,.19-.64,.28-1.1,.28s-.84-.09-1.11-.26c-.27-.17-.41-.4-.41-.69Zm.12-2.93c0-.36,.12-.65,.36-.87s.57-.32,.98-.32,.78,.12,1.04,.35c.26,.23,.39,.54,.39,.93,0,.35-.11,.64-.34,.86-.23,.22-.52,.33-.89,.33-.07-.03-.25-.05-.56-.06v-.13c-.31-.02-.56-.13-.73-.32-.18-.19-.26-.45-.26-.76Zm.48,2.78c0,.17,.08,.3,.25,.4,.16,.1,.39,.15,.68,.15s.5-.05,.66-.14,.23-.23,.23-.4c0-.12-.05-.22-.15-.3-.1-.07-.33-.17-.67-.28-.3,0-.54,.05-.72,.15-.18,.1-.27,.24-.27,.42Zm.12-2.74c0,.24,.07,.42,.21,.55,.14,.13,.33,.19,.58,.19s.44-.06,.58-.19c.14-.13,.21-.31,.21-.55s-.07-.41-.21-.53c-.14-.12-.33-.19-.58-.19s-.45,.06-.58,.19c-.14,.12-.21,.3-.21,.53Zm1.82-1.37c-.17,0-.25,.06-.25,.19,0,.06,.05,.14,.16,.26l-.37-.12,.08-.15c-.13-.09-.2-.19-.2-.31,0-.11,.05-.2,.15-.26,.1-.06,.24-.09,.41-.09h.6v.49h-.58Z"/>
        <path class="cls-1" d="M54.28,11.7c0-.57,.14-1.01,.43-1.32,.29-.31,.67-.46,1.16-.46,.46,0,.84,.16,1.14,.48s.46,.75,.46,1.31-.14,1.01-.43,1.32-.68,.47-1.16,.47-.88-.16-1.16-.47c-.29-.31-.43-.76-.43-1.32Zm.61,0c0,.4,.09,.72,.26,.93,.17,.22,.41,.33,.72,.33s.55-.11,.73-.33c.18-.22,.26-.53,.26-.93s-.09-.71-.26-.93c-.18-.22-.42-.33-.73-.33s-.55,.11-.72,.33c-.17,.22-.26,.53-.26,.93Z"/>
        <path class="cls-1" d="M60.23,11.01l-.62,2.36h-.92l-.99-3.32h.62l.71,2.36,.06,.4h.09l.08-.4,.63-2.36h.85l.64,2.36,.07,.4h.09l.06-.4,.71-2.36h.61l-.98,3.32h-.92l-.63-2.36-.05-.44h-.09l-.06,.44Z"/>
        <path class="cls-1" d="M64.89,12.4l.81-2.35h.66l-1.45,3.95c-.08,.21-.19,.38-.33,.5-.15,.12-.31,.18-.49,.18h-.76v-.57s.52,0,.52,0c.13,0,.23-.03,.3-.09,.07-.06,.12-.16,.16-.32l.09-.34-1.23-3.32h.65l.81,2.35,.09,.4h.09l.09-.4Z"/>
        <path class="cls-1" d="M25.22,17.31h.6v4.72h-.6v-4.72Z"/>
        <path class="cls-1" d="M26.34,17.31h3.5v.57h-1.45v4.15h-.61v-4.15h-1.44v-.57Z"/>
        <path class="cls-1" d="M33.67,18.16l-1.33,3.86h-.65l1.63-4.72h.96l1.64,4.72h-.64l-1.35-3.86-.08-.4h-.09l-.08,.4Zm-.98,1.95h2.24v.57h-2.24v-.57Z"/>
        <path class="cls-1" d="M39.14,18.94c-.2-.76-.63-1.15-1.28-1.15-.42,0-.75,.16-.99,.49-.24,.33-.35,.79-.35,1.4s.12,1.05,.38,1.38,.58,.5,.98,.5c.37,0,.67-.12,.9-.36s.36-.57,.36-.98h.14c0,.56-.14,1.01-.43,1.38-.29,.37-.66,.55-1.14,.55-.52,0-.95-.21-1.29-.64s-.51-1.01-.51-1.75c0-.8,.17-1.43,.52-1.87,.35-.44,.81-.67,1.39-.67,.45,0,.84,.14,1.17,.42s.57,.68,.72,1.19l-.58,.12Zm.6,.71v2.36h-.6l.23-1.24-.23-.06v-.49h-1.74v-.56h2.34Z"/>
        <path class="cls-1" d="M40.28,17.31h.6v4.72h-.6v-4.72Zm.3,2.05h2.82v.58h-2.82v-.58Zm2.59-2.05h.61v4.72h-.61v-4.72Z"/>
      </g>
    </g>
  </g>
</svg>