<svg width="142" height="36" viewBox="0 0 142 36" fill="none" xmlns="http://www.w3.org/2000/svg">
<path d="M25.5202 9.03979C22.5374 9.03979 19.813 10.3426 17.8677 12.2978C15.9225 14.2527 14.7542 16.9894 14.7542 19.987C14.7542 21.9419 13.1981 23.5058 11.1232 23.5058C9.17671 23.5058 7.62056 21.9419 7.49111 19.987C7.49111 19.8282 7.48191 19.6726 7.46449 19.5205H0.384283C0.366619 19.6729 0.357666 19.8285 0.357666 19.987C0.357666 22.9844 1.52471 25.7211 3.46996 27.676C5.41641 29.6309 8.13984 30.8036 11.1234 30.8036C14.1062 30.8036 16.8306 29.6309 18.7759 27.676C20.7211 25.7211 21.8894 22.9844 21.8894 19.987C21.8894 17.9016 23.5752 16.3378 25.5205 16.3378C27.2286 16.3378 28.7356 17.542 29.0792 19.2462L29.0506 22.9192H36.2862V19.987V19.7261V19.7021C36.2862 19.6017 36.2818 19.502 36.2739 19.4035C35.9791 13.6862 31.2509 9.04004 25.5205 9.04004L25.5202 9.03979Z" fill="#284153"/>
<path d="M86.2479 23.6357C84.1729 23.6357 82.4871 22.0717 82.4871 19.9868C82.4871 17.9013 84.1729 16.2073 86.2479 16.2073C88.324 16.2073 90.0099 17.9016 90.0099 19.9868C90.0099 22.0717 88.324 23.6357 86.2479 23.6357ZM97.0105 19.9868C97.0105 13.9918 92.2157 9.03979 86.2479 9.03979C80.2812 9.03979 75.3534 13.992 75.3534 19.9868C75.3534 25.9812 80.2812 30.8034 86.2479 30.8034C92.2155 30.8034 97.0105 25.9812 97.0105 19.9868Z" fill="#284153"/>
<path d="M98.9554 19.987C98.9554 25.9815 103.884 30.8039 109.851 30.8039H117.753V23.5058H109.851C107.776 23.5058 106.219 21.9419 106.219 19.987C106.219 17.9018 107.776 16.3378 109.851 16.3378H117.753V9.04004H109.851C103.884 9.04004 98.9554 13.9923 98.9554 19.987Z" fill="#284153"/>
<path d="M131.234 9.03972C129.937 9.03972 128.641 9.30034 127.473 9.69127V0.173584C127.473 0.115479 127.472 0.0576181 127.469 0H120.343C120.34 0.057375 120.339 0.115479 120.339 0.173584V19.3351C120.339 19.596 120.339 19.7261 120.339 19.9869V30.8038H127.603V19.9869C127.603 17.9015 129.159 16.3378 131.234 16.3378C133.181 16.3378 134.737 17.9015 134.737 19.9869V30.8038H142V19.9869C142 13.992 137.202 9.03997 131.234 9.03997L131.234 9.03972Z" fill="#284153"/>
<path d="M3.96719 17.8313C6.15821 17.8313 7.93438 16.0468 7.93438 13.8455C7.93438 11.6442 6.15821 9.85962 3.96719 9.85962C1.77617 9.85962 0 11.6442 0 13.8455C0 16.0468 1.77617 17.8313 3.96719 17.8313Z" fill="#284153"/>
<path d="M69.8934 9.13208H62.7598V30.8035H69.8934V9.13208Z" fill="#284153"/>
<path fill-rule="evenodd" clip-rule="evenodd" d="M74.503 9.13208C68.7077 9.13208 64.0093 13.8524 64.0093 19.6752H69.8929C69.8929 17.1174 71.957 15.0437 74.5028 15.0437V9.13232L74.503 9.13208Z" fill="#284153"/>
<path d="M48.9374 9.03979C44.4013 9.28947 40.5123 12.4026 39.2593 16.6974C38.9276 17.7379 38.748 18.8431 38.748 19.9868C38.748 20.1594 38.7524 20.3308 38.7606 20.5012V23.8994V32.3506V35.9997H42.3917H46.0238V32.3506V30.1869C47.1586 30.5858 48.377 30.8034 49.6423 30.8034C55.6099 30.8034 60.4049 25.9812 60.4049 19.9868C60.4049 13.9918 55.6101 9.03979 49.6423 9.03979C49.4056 9.03979 49.1707 9.0483 48.9374 9.06362V9.03979ZM46.0238 21.0088V19.8399C46.0238 18.6671 46.5423 17.7545 47.3205 17.1032C47.9317 16.5773 48.4837 16.4052 48.9374 16.3092V16.2739C49.1658 16.2304 49.4013 16.2071 49.6423 16.2071C51.7184 16.2071 53.4043 17.9013 53.4043 19.9865C53.4043 22.0715 51.7184 23.6354 49.6423 23.6354C47.9235 23.6354 46.4717 22.5621 46.0238 21.0086V21.0088Z" fill="#284153"/>
</svg>
