<svg width="26" height="28" viewBox="0 0 26 28" fill="none" xmlns="http://www.w3.org/2000/svg">
<path d="M23.3133 5.18446L23.2406 5.43879L23.41 5.64201C24.4705 6.91461 24.9991 8.39304 24.9991 10.0994C24.9991 13.298 24.0926 15.2913 22.8285 16.5556C21.5535 17.8307 19.851 18.4287 18.1407 18.7045L17.4281 18.8195L17.7862 19.4462C18.1777 20.1313 18.2891 20.9382 18.2891 21.8144V26.4769C18.2891 26.6615 18.235 26.7612 18.1916 26.8089C18.1509 26.8537 18.0897 26.8869 17.9928 26.8869V26.8869L17.9858 26.887C17.9327 26.8877 17.8799 26.8778 17.8307 26.8578C17.7815 26.8378 17.7367 26.8082 17.6992 26.7706C17.6616 26.733 17.6319 26.6883 17.6119 26.639C17.592 26.5898 17.582 26.5371 17.5828 26.4839H17.5828V26.4769V21.8445C17.6461 21.3019 17.5858 20.7518 17.4062 20.2356C17.2599 19.8149 17.0376 19.4258 16.7512 19.0871L17.1019 18.1755C18.7923 17.9383 20.5783 17.5092 21.9643 16.3713C23.461 15.1426 24.4078 13.1619 24.4078 9.98567C24.4078 8.41253 23.8163 6.96587 22.7707 5.76454L22.611 5.1264C23.0309 3.9695 23.0548 2.70407 22.6762 1.52974L22.5396 1.10617L22.1031 1.19271C21.4909 1.31407 20.3131 1.55998 18.3691 2.91457L17.9001 2.99173C15.1977 2.32314 12.373 2.32314 9.67052 2.99173L9.18499 2.91184C7.18245 1.69595 5.96533 1.29692 5.25533 1.29692H4.88332L4.77642 1.65324C4.42621 2.82061 4.39988 4.12659 4.84265 5.24927L4.6892 5.86561C3.5245 7.08189 2.93533 8.641 2.93533 10.0994C2.93533 13.2114 3.82059 15.1915 5.28694 16.4371C6.64549 17.5911 8.42917 18.0474 10.2172 18.2883L10.4929 19.1842C9.85711 19.9287 9.53414 20.8779 9.64533 21.8443V26.5907H9.64528L9.64538 26.5977C9.64613 26.6508 9.63621 26.7036 9.61622 26.7528C9.59623 26.802 9.56657 26.8468 9.52899 26.8843C9.49142 26.9219 9.44669 26.9516 9.39746 26.9716C9.34822 26.9915 9.29548 27.0015 9.24234 27.0007L9.24235 27.0005L9.22832 27.0007C9.17519 27.0015 9.12244 26.9915 9.07321 26.9716C9.02397 26.9516 8.97924 26.9219 8.94167 26.8843C8.90409 26.8468 8.87443 26.802 8.85444 26.7528C8.83445 26.7036 8.82454 26.6508 8.82528 26.5977L8.82533 26.5977V26.5907V23.9757V23.3584L8.22155 23.4866C6.44921 23.8626 5.27063 23.5865 4.41108 23.0882C3.5278 22.5763 2.92867 21.8037 2.35277 21.0556L2.34688 21.048L2.34069 21.0406C2.31822 21.0136 2.29574 20.9866 2.27323 20.9595C2.01961 20.6547 1.76355 20.3468 1.50364 20.1014C1.26256 19.8737 0.983161 19.6646 0.64998 19.555C0.621933 19.5141 0.59007 19.4617 0.562446 19.4019C0.502304 19.2718 0.489408 19.1672 0.507902 19.0932C0.5355 18.9828 0.603393 18.8977 0.668782 18.8575C0.698995 18.839 0.724337 18.8323 0.743855 18.831C0.761601 18.8298 0.78755 18.8321 0.824715 18.8506L0.884388 18.8804L0.949773 18.8935C1.81118 19.0657 2.35707 19.7082 3.00903 20.4754C3.05788 20.5329 3.10733 20.5911 3.15755 20.6499C3.66239 21.3219 4.23377 22.0608 5.11024 22.515C6.0123 22.9826 7.16358 23.1164 8.7749 22.7588L9.16658 22.6719V22.2707V21.8157V21.7849L9.1628 21.7543C9.06552 20.9674 9.25947 20.165 9.66945 19.4475L10.0136 18.8452L9.33339 18.7091C7.67131 18.3767 5.93084 17.7499 4.60754 16.4662C3.29882 15.1966 2.34283 13.2304 2.34283 10.1007C2.34283 8.39454 2.87253 6.91605 3.93319 5.64326L4.089 5.45629L4.03797 5.21832C3.72484 3.7582 3.82111 2.20902 4.30496 0.969278L4.70631 0.648195C4.74231 0.639404 4.81312 0.625094 4.92525 0.61738C5.1118 0.604546 5.39275 0.611641 5.77484 0.682834C6.53921 0.825255 7.70347 1.22341 9.31162 2.22172L9.49145 2.33336L9.69677 2.28195C12.3425 1.6195 15.1107 1.6195 17.7564 2.28195L17.9734 2.33628L18.1585 2.21071C19.7079 1.15976 20.8698 0.735726 21.6455 0.580476C22.0336 0.502799 22.3248 0.492405 22.5204 0.503959C22.6404 0.511042 22.7152 0.52568 22.7519 0.534239L23.1419 0.846225C23.64 2.30939 23.7233 3.75068 23.3133 5.18446Z" />
</svg>
