<svg width="279" height="97" viewBox="0 0 279 97" fill="none" xmlns="http://www.w3.org/2000/svg">
<g clip-path="url(#clip0_262_120)">
<path d="M128.347 63.5659C122.74 63.5659 118.185 59.3595 118.185 53.7527C118.185 48.144 122.74 43.5879 128.347 43.5879C133.956 43.5879 138.512 48.144 138.512 53.7527C138.512 59.3595 133.956 63.5659 128.347 63.5659ZM157.428 53.7527C157.428 37.6302 144.473 24.3115 128.347 24.3115C112.225 24.3115 98.9098 37.6296 98.9098 53.7527C98.9098 69.8745 112.225 82.8429 128.347 82.8429C144.472 82.8429 157.428 69.8745 157.428 53.7527Z" fill="#FEFEFE"/>
<path d="M162.684 53.7526C162.684 69.8738 176.003 82.8435 192.125 82.8435H213.475V63.2163H192.125C186.519 63.2163 182.31 59.0105 182.31 53.7526C182.31 48.1446 186.519 43.9387 192.125 43.9387H213.475V24.3121H192.125C176.003 24.3121 162.684 37.6302 162.684 53.7526Z" fill="#FEFEFE"/>
<path d="M249.903 24.3115C246.399 24.3115 242.895 25.0119 239.74 26.0639V0.4673C239.74 0.310957 239.736 0.155229 239.729 0.000732422H220.475C220.467 0.155229 220.462 0.310957 220.462 0.4673V52.0002C220.462 52.7019 220.462 53.0515 220.462 53.7532V82.8441H240.091V53.7532C240.091 48.1446 244.297 43.9393 249.903 43.9393C255.162 43.9393 259.367 48.1446 259.367 53.7532V82.8441H278.993V53.7532C278.993 37.6308 266.028 24.3121 249.903 24.3121V24.3115Z" fill="#FEFEFE"/>
<path d="M84.1569 24.5602H64.8812V82.8429H84.1569V24.5602Z" fill="#FEFEFE"/>
<path fill-rule="evenodd" clip-rule="evenodd" d="M96.6127 24.5602C80.9531 24.5602 68.2585 37.2554 68.2585 52.9143H84.1569C84.1569 46.0352 89.7342 40.4579 96.6133 40.4579V24.5596L96.6127 24.5602Z" fill="#FEFEFE"/>
<path d="M27.533 24.3115C15.2761 24.9831 4.76785 33.3554 1.38185 44.9063C0.485648 47.7045 0 50.6775 0 53.7527C0 54.2168 0.0123105 54.6778 0.0338538 55.1363V64.2756V87.0045V96.8184H9.84531H19.6598V87.0045V81.1853C22.7264 82.2582 26.0182 82.8435 29.4368 82.8435C45.5617 82.8435 58.5179 69.8751 58.5179 53.7533C58.5179 37.6308 45.5623 24.3121 29.4368 24.3121C28.7973 24.3121 28.1621 24.3349 27.5324 24.3762V24.3121L27.533 24.3115ZM19.6605 56.501V53.3575C19.6605 50.2035 21.062 47.7488 23.1646 45.997C24.8161 44.5832 26.3075 44.1203 27.5336 43.8618V43.767C28.151 43.6501 28.7874 43.5873 29.4381 43.5873C35.0473 43.5873 39.6028 48.1434 39.6028 53.752C39.6028 59.3588 35.0473 63.5653 29.4381 63.5653C24.7939 63.5653 20.8706 60.6791 19.6611 56.5003L19.6605 56.501Z" fill="#FEFEFE"/>
</g>
<defs>
<clipPath id="clip0_262_120">
<rect width="278.993" height="96.8179" fill="white"/>
</clipPath>
</defs>
</svg>
