<svg width="99" height="59" viewBox="0 0 99 59" fill="none" xmlns="http://www.w3.org/2000/svg">
<g clip-path="url(#clip0_262_116)">
<path d="M68.9563 0C60.8966 0 53.5354 3.50277 48.28 8.76076C43.0246 14.0187 39.8672 21.3774 39.8672 29.4396C39.8672 34.6976 35.6634 38.904 30.0549 38.904C24.7969 38.904 20.5905 34.6976 20.2399 29.4396C20.2399 29.0123 20.2144 28.5953 20.1683 28.1859H1.0374C0.988787 28.5953 0.965759 29.0149 0.965759 29.4396C0.965759 37.4993 4.12055 44.8605 9.37598 50.1185C14.634 55.3765 21.9926 58.5313 30.0549 58.5313C38.1145 58.5313 45.4757 55.3765 50.7312 50.1185C55.9866 44.8605 59.1439 37.5019 59.1439 29.4396C59.1439 23.8311 63.6983 19.6247 68.9563 19.6247C73.5721 19.6247 77.6429 22.8639 78.5716 27.4464L78.4949 37.3253H98.0454V29.4396V28.7386V28.6746C98.0454 28.4034 98.0326 28.1373 98.0121 27.8712C97.2164 12.4964 84.4411 0 68.9563 0Z" fill="#FEFEFE"/>
<path d="M10.7218 23.6443C16.6427 23.6443 21.4425 18.8445 21.4425 12.9237C21.4425 7.00281 16.6427 2.203 10.7218 2.203C4.80097 2.203 0.00115967 7.00281 0.00115967 12.9237C0.00115967 18.8445 4.80097 23.6443 10.7218 23.6443Z" fill="#FEFEFE"/>
</g>
<defs>
<clipPath id="clip0_262_116">
<rect width="98.0466" height="58.5313" fill="white"/>
</clipPath>
</defs>
</svg>
