<svg  viewBox="0 0 384 97" fill="none" xmlns="http://www.w3.org/2000/svg">
<g clip-path="url(#clip0_262_106)">
<path d="M68.9567 24.3114C60.8969 24.3114 53.5355 27.8153 48.2794 33.0734C43.0232 38.3308 39.8665 45.6909 39.8665 53.7526C39.8665 59.0101 35.6618 63.2162 30.0552 63.2162C24.7958 63.2162 20.591 59.0101 20.2412 53.7526C20.2412 53.3257 20.2164 52.9072 20.1693 52.4979H1.03829C0.990561 52.9079 0.96637 53.3263 0.96637 53.7526C0.96637 61.8137 4.11978 69.1738 9.37591 74.4313C14.6353 79.6887 21.9941 82.8428 30.0559 82.8428C38.1156 82.8428 45.477 79.6887 50.7332 74.4313C55.9893 69.1738 59.146 61.8137 59.146 53.7526C59.146 48.1441 63.7012 43.9387 68.9573 43.9387C73.5727 43.9387 77.6448 47.1771 78.5732 51.7604L78.496 61.6385H98.0468V53.7526V53.0511V52.9864C98.0468 52.7163 98.035 52.4483 98.0135 52.1835C97.2171 36.8074 84.4413 24.3121 68.9573 24.3121L68.9567 24.3114Z" fill="#FEFEFE"/>
<path d="M233.045 63.5653C227.439 63.5653 222.884 59.3592 222.884 53.752C222.884 48.1434 227.439 43.5876 233.045 43.5876C238.655 43.5876 243.21 48.1441 243.21 53.752C243.21 59.3592 238.655 63.5653 233.045 63.5653ZM262.126 53.752C262.126 37.6292 249.171 24.3114 233.045 24.3114C216.923 24.3114 203.608 37.6299 203.608 53.752C203.608 69.8734 216.923 82.8421 233.045 82.8421C249.17 82.8421 262.126 69.8734 262.126 53.752Z" fill="#FEFEFE"/>
<path d="M267.382 53.7527C267.382 69.8742 280.7 82.8435 296.822 82.8435H318.173V63.2162H296.822C291.216 63.2162 287.008 59.0102 287.008 53.7527C287.008 48.1448 291.216 43.9388 296.822 43.9388H318.173V24.3121H296.822C280.7 24.3121 267.382 37.6306 267.382 53.7527Z" fill="#FEFEFE"/>
<path d="M354.6 24.3114C351.096 24.3114 347.592 25.0123 344.438 26.0637V0.466956C344.438 0.310691 344.434 0.155079 344.427 0.00012207H325.172C325.165 0.154426 325.16 0.310691 325.16 0.466956V51.9998C325.16 52.7013 325.16 53.0511 325.16 53.7527V82.8435H344.789V53.7527C344.789 48.1441 348.994 43.9387 354.601 43.9387C359.86 43.9387 364.065 48.1441 364.065 53.7527V82.8435H383.691V53.7527C383.691 37.6299 370.725 24.3121 354.601 24.3121L354.6 24.3114Z" fill="#FEFEFE"/>
<path d="M10.7195 47.9552C16.6397 47.9552 21.439 43.1559 21.439 37.2356C21.439 31.3154 16.6397 26.5161 10.7195 26.5161C4.79929 26.5161 0 31.3154 0 37.2356C0 43.1559 4.79929 47.9552 10.7195 47.9552Z" fill="#FEFEFE"/>
<path d="M188.855 24.5599H169.58V82.8429H188.855V24.5599Z" fill="#FEFEFE"/>
<path fill-rule="evenodd" clip-rule="evenodd" d="M201.311 24.5599C185.651 24.5599 172.956 37.2547 172.956 52.9145H188.854C188.854 46.0356 194.431 40.4584 201.31 40.4584V24.5606L201.311 24.5599Z" fill="#FEFEFE"/>
<path d="M132.231 24.3114C119.974 24.9829 109.466 33.3552 106.08 44.9057C105.184 47.7041 104.699 50.6764 104.699 53.752C104.699 54.2162 104.711 54.6772 104.733 55.1355V64.2747V87.0031V96.8171H114.544H124.358V87.0031V81.184C127.425 82.257 130.717 82.8421 134.136 82.8421C150.26 82.8421 163.217 69.8734 163.217 53.752C163.217 37.6292 150.261 24.3114 134.136 24.3114C133.496 24.3114 132.861 24.3343 132.231 24.3755V24.3114ZM124.358 56.5007V53.3571C124.358 50.203 125.759 47.7485 127.862 45.9969C129.514 44.5827 131.005 44.1198 132.231 43.8615V43.7667C132.848 43.6497 133.484 43.5869 134.136 43.5869C139.745 43.5869 144.301 48.1434 144.301 53.7513C144.301 59.3586 139.745 63.5646 134.136 63.5646C129.491 63.5646 125.568 60.678 124.358 56.5V56.5007Z" fill="#FEFEFE"/>
</g>
<defs>
<clipPath id="clip0_262_106">
<rect width="383.69" height="96.8179" fill="white"/>
</clipPath>
</defs>
</svg>
