<svg width="1455" height="496" viewBox="0 0 1455 496" fill="none" xmlns="http://www.w3.org/2000/svg">
<path d="M44.9907 40.1269L27.9672 23.1033L44.9907 6.07975C46.6119 4.45846 46.6119 2.83725 44.9907 1.21597C43.3694 -0.405322 41.7482 -0.405322 40.1269 1.21597L23.1033 18.2394L6.07987 1.21597C4.45859 -0.405322 2.83725 -0.405322 1.21597 1.21597C-0.405322 2.83725 -0.405322 4.45846 1.21597 6.07975L18.2395 23.1033L1.21597 40.1269C-0.405322 41.7482 -0.405322 43.3694 1.21597 44.9907C2.83725 46.6119 4.45859 46.6119 6.07987 44.9907L23.1033 27.9672L40.1269 44.9907C41.7482 46.6119 43.3694 46.6119 44.9907 44.9907C46.6119 44.18 46.6119 41.7482 44.9907 40.1269Z" />
<path d="M186.043 40.1269L169.019 23.1033L186.043 6.07975C187.664 4.45846 187.664 2.83725 186.043 1.21597C184.421 -0.405322 182.8 -0.405322 181.179 1.21597L164.155 18.2394L147.132 1.21597C145.511 -0.405322 143.889 -0.405322 142.268 1.21597C140.647 2.83725 140.647 4.45846 142.268 6.07975L159.292 23.1033L142.268 40.1269C140.647 41.7482 140.647 43.3694 142.268 44.9907C143.889 46.6119 145.511 46.6119 147.132 44.9907L164.155 27.9672L181.179 44.9907C182.8 46.6119 184.421 46.6119 186.043 44.9907C187.664 44.18 187.664 41.7482 186.043 40.1269Z" />
<path d="M326.284 40.1269L309.26 23.1033L326.284 6.07975C327.905 4.45846 327.905 2.83725 326.284 1.21597C324.662 -0.405322 323.041 -0.405322 321.42 1.21597L304.396 18.2394L287.373 1.21597C285.751 -0.405322 284.13 -0.405322 282.509 1.21597C280.887 2.83725 280.887 4.45846 282.509 6.07975L299.532 23.1033L282.509 40.1269C280.887 41.7482 280.887 43.3694 282.509 44.9907C284.13 46.6119 285.751 46.6119 287.373 44.9907L304.396 27.9672L321.42 44.9907C323.041 46.6119 324.662 46.6119 326.284 44.9907C327.905 44.18 327.905 41.7482 326.284 40.1269Z" />
<path d="M467.336 40.1269L450.312 23.1033L467.336 6.07975C468.957 4.45846 468.957 2.83725 467.336 1.21597C465.714 -0.405322 464.093 -0.405322 462.472 1.21597L445.448 18.2394L428.425 1.21597C426.803 -0.405322 425.182 -0.405322 423.561 1.21597C421.94 2.83725 421.94 4.45846 423.561 6.07975L440.584 23.1033L423.561 40.1269C421.94 41.7482 421.94 43.3694 423.561 44.9907C425.182 46.6119 426.803 46.6119 428.425 44.9907L445.448 27.9672L462.472 44.9907C464.093 46.6119 465.714 46.6119 467.336 44.9907C468.957 44.18 468.957 41.7482 467.336 40.1269Z" />
<path d="M608.388 40.1269L591.365 23.1033L608.388 6.07975C610.009 4.45846 610.009 2.83725 608.388 1.21597C606.767 -0.405322 605.146 -0.405322 603.524 1.21597L586.501 18.2394L569.477 1.21597C567.856 -0.405322 566.235 -0.405322 564.613 1.21597C562.992 2.83725 562.992 4.45846 564.613 6.07975L581.637 23.1033L564.613 40.1269C562.992 41.7482 562.992 43.3694 564.613 44.9907C566.235 46.6119 567.856 46.6119 569.477 44.9907L586.501 27.9672L603.524 44.9907C605.146 46.6119 606.767 46.6119 608.388 44.9907C610.009 44.18 610.009 41.7482 608.388 40.1269Z" />
<path d="M748.63 40.1269L731.606 23.1033L748.63 6.07975C750.251 4.45846 750.251 2.83725 748.63 1.21597C747.008 -0.405322 745.387 -0.405322 743.766 1.21597L726.742 18.2394L709.719 1.21597C708.097 -0.405322 706.476 -0.405322 704.855 1.21597C703.234 2.83725 703.234 4.45846 704.855 6.07975L721.878 23.1033L704.855 40.1269C703.234 41.7482 703.234 43.3694 704.855 44.9907C706.476 46.6119 708.097 46.6119 709.719 44.9907L726.742 27.9672L743.766 44.9907C745.387 46.6119 747.008 46.6119 748.63 44.9907C750.251 44.18 750.251 41.7482 748.63 40.1269Z" />
<path d="M889.681 40.1269L872.657 23.1033L889.681 6.07975C891.302 4.45846 891.302 2.83725 889.681 1.21597C888.06 -0.405322 886.438 -0.405322 884.817 1.21597L867.793 18.2394L850.77 1.21597C849.149 -0.405322 847.527 -0.405322 845.906 1.21597C844.285 2.83725 844.285 4.45846 845.906 6.07975L862.93 23.1033L845.906 40.1269C844.285 41.7482 844.285 43.3694 845.906 44.9907C847.527 46.6119 849.149 46.6119 850.77 44.9907L867.793 27.9672L884.817 44.9907C886.438 46.6119 888.06 46.6119 889.681 44.9907C891.302 44.18 891.302 41.7482 889.681 40.1269Z" />
<path d="M1030.73 40.1269L1013.71 23.1033L1030.73 6.07975C1032.35 4.45846 1032.35 2.83725 1030.73 1.21597C1029.11 -0.405322 1027.49 -0.405322 1025.87 1.21597L1008.85 18.2394L991.822 1.21597C990.201 -0.405322 988.579 -0.405322 986.958 1.21597C985.337 2.83725 985.337 4.45846 986.958 6.07975L1003.98 23.1033L986.958 40.1269C985.337 41.7482 985.337 43.3694 986.958 44.9907C988.579 46.6119 990.201 46.6119 991.822 44.9907L1008.85 27.9672L1025.87 44.9907C1027.49 46.6119 1029.11 46.6119 1030.73 44.9907C1032.35 44.18 1032.35 41.7482 1030.73 40.1269Z" />
<path d="M1170.97 40.1269L1153.95 23.1033L1170.97 6.07975C1172.6 4.45846 1172.6 2.83725 1170.97 1.21597C1169.35 -0.405322 1167.73 -0.405322 1166.11 1.21597L1149.09 18.2394L1132.06 1.21597C1130.44 -0.405322 1128.82 -0.405322 1127.2 1.21597C1125.58 2.83725 1125.58 4.45846 1127.2 6.07975L1144.22 23.1033L1127.2 40.1269C1125.58 41.7482 1125.58 43.3694 1127.2 44.9907C1128.82 46.6119 1130.44 46.6119 1132.06 44.9907L1149.09 27.9672L1166.11 44.9907C1167.73 46.6119 1169.35 46.6119 1170.97 44.9907C1172.6 44.18 1172.6 41.7482 1170.97 40.1269Z" />
<path d="M1312.03 40.1269L1295 23.1033L1312.03 6.07975C1313.65 4.45846 1313.65 2.83725 1312.03 1.21597C1310.4 -0.405322 1308.78 -0.405322 1307.16 1.21597L1290.14 18.2394L1273.12 1.21597C1271.49 -0.405322 1269.87 -0.405322 1268.25 1.21597C1266.63 2.83725 1266.63 4.45846 1268.25 6.07975L1285.27 23.1033L1268.25 40.1269C1266.63 41.7482 1266.63 43.3694 1268.25 44.9907C1269.87 46.6119 1271.49 46.6119 1273.12 44.9907L1290.14 27.9672L1307.16 44.9907C1308.78 46.6119 1310.4 46.6119 1312.03 44.9907C1313.65 44.18 1313.65 41.7482 1312.03 40.1269Z" />
<path d="M1453.08 40.1269L1436.05 23.1033L1453.08 6.07975C1454.7 4.45846 1454.7 2.83725 1453.08 1.21597C1451.46 -0.405322 1449.84 -0.405322 1448.21 1.21597L1431.19 18.2394L1414.17 1.21597C1412.55 -0.405322 1410.93 -0.405322 1409.3 1.21597C1407.68 2.83725 1407.68 4.45846 1409.3 6.07975L1426.33 23.1033L1409.3 40.1269C1407.68 41.7482 1407.68 43.3694 1409.3 44.9907C1410.93 46.6119 1412.55 46.6119 1414.17 44.9907L1431.19 27.9672L1448.21 44.9907C1449.84 46.6119 1451.46 46.6119 1453.08 44.9907C1454.7 43.3694 1454.7 41.7482 1453.08 40.1269Z" />
<path d="M44.9907 152.806L27.9672 135.783L44.9907 118.759C46.6119 117.138 46.6119 115.517 44.9907 113.895C43.3694 112.274 41.7482 112.274 40.1269 113.895L23.1033 130.919L6.07987 113.895C4.45859 112.274 2.83725 112.274 1.21597 113.895C-0.405322 115.517 -0.405322 117.138 1.21597 118.759L18.2395 135.783L1.21597 152.806C-0.405322 154.428 -0.405322 156.049 1.21597 157.67C2.83725 159.291 4.45859 159.291 6.07987 157.67L23.1033 140.647L40.1269 157.67C41.7482 159.291 43.3694 159.291 44.9907 157.67C46.6119 156.049 46.6119 153.617 44.9907 152.806Z" />
<path d="M186.043 152.806L169.019 135.783L186.043 118.759C187.664 117.138 187.664 115.517 186.043 113.895C184.421 112.274 182.8 112.274 181.179 113.895L164.155 130.919L147.132 113.895C145.511 112.274 143.889 112.274 142.268 113.895C140.647 115.517 140.647 117.138 142.268 118.759L159.292 135.783L142.268 152.806C140.647 154.428 140.647 156.049 142.268 157.67C143.889 159.291 145.511 159.291 147.132 157.67L164.155 140.647L181.179 157.67C182.8 159.291 184.421 159.291 186.043 157.67C187.664 156.049 187.664 153.617 186.043 152.806Z" />
<path d="M326.284 152.806L309.26 135.783L326.284 118.759C327.905 117.138 327.905 115.517 326.284 113.895C324.662 112.274 323.041 112.274 321.42 113.895L304.396 130.919L287.373 113.895C285.751 112.274 284.13 112.274 282.509 113.895C280.887 115.517 280.887 117.138 282.509 118.759L299.532 135.783L282.509 152.806C280.887 154.428 280.887 156.049 282.509 157.67C284.13 159.291 285.751 159.291 287.373 157.67L304.396 140.647L321.42 157.67C323.041 159.291 324.662 159.291 326.284 157.67C327.905 156.049 327.905 153.617 326.284 152.806Z" />
<path d="M467.336 152.806L450.312 135.783L467.336 118.759C468.957 117.138 468.957 115.517 467.336 113.895C465.714 112.274 464.093 112.274 462.472 113.895L445.448 130.919L428.425 113.895C426.803 112.274 425.182 112.274 423.561 113.895C421.94 115.517 421.94 117.138 423.561 118.759L440.584 135.783L423.561 152.806C421.94 154.428 421.94 156.049 423.561 157.67C425.182 159.291 426.803 159.291 428.425 157.67L445.448 140.647L462.472 157.67C464.093 159.291 465.714 159.291 467.336 157.67C468.957 156.049 468.957 153.617 467.336 152.806Z" />
<path d="M608.388 152.806L591.365 135.783L608.388 118.759C610.009 117.138 610.009 115.517 608.388 113.895C606.767 112.274 605.146 112.274 603.524 113.895L586.501 130.919L569.477 113.895C567.856 112.274 566.235 112.274 564.613 113.895C562.992 115.517 562.992 117.138 564.613 118.759L581.637 135.783L564.613 152.806C562.992 154.428 562.992 156.049 564.613 157.67C566.235 159.291 567.856 159.291 569.477 157.67L586.501 140.647L603.524 157.67C605.146 159.291 606.767 159.291 608.388 157.67C610.009 156.049 610.009 153.617 608.388 152.806Z" />
<path d="M748.63 152.806L731.606 135.783L748.63 118.759C750.251 117.138 750.251 115.517 748.63 113.895C747.008 112.274 745.387 112.274 743.766 113.895L726.742 130.919L709.719 113.895C708.097 112.274 706.476 112.274 704.855 113.895C703.234 115.517 703.234 117.138 704.855 118.759L721.878 135.783L704.855 152.806C703.234 154.428 703.234 156.049 704.855 157.67C706.476 159.291 708.097 159.291 709.719 157.67L726.742 140.647L743.766 157.67C745.387 159.291 747.008 159.291 748.63 157.67C750.251 156.049 750.251 153.617 748.63 152.806Z" />
<path d="M889.681 152.806L872.657 135.783L889.681 118.759C891.302 117.138 891.302 115.517 889.681 113.895C888.06 112.274 886.438 112.274 884.817 113.895L867.793 130.919L850.77 113.895C849.149 112.274 847.527 112.274 845.906 113.895C844.285 115.517 844.285 117.138 845.906 118.759L862.93 135.783L845.906 152.806C844.285 154.428 844.285 156.049 845.906 157.67C847.527 159.291 849.149 159.291 850.77 157.67L867.793 140.647L884.817 157.67C886.438 159.291 888.06 159.291 889.681 157.67C891.302 156.049 891.302 153.617 889.681 152.806Z" />
<path d="M1030.73 152.806L1013.71 135.783L1030.73 118.759C1032.35 117.138 1032.35 115.517 1030.73 113.895C1029.11 112.274 1027.49 112.274 1025.87 113.895L1008.85 130.919L991.822 113.895C990.201 112.274 988.579 112.274 986.958 113.895C985.337 115.517 985.337 117.138 986.958 118.759L1003.98 135.783L986.958 152.806C985.337 154.428 985.337 156.049 986.958 157.67C988.579 159.291 990.201 159.291 991.822 157.67L1008.85 140.647L1025.87 157.67C1027.49 159.291 1029.11 159.291 1030.73 157.67C1032.35 156.049 1032.35 153.617 1030.73 152.806Z" />
<path d="M1170.97 152.806L1153.95 135.783L1170.97 118.759C1172.6 117.138 1172.6 115.517 1170.97 113.895C1169.35 112.274 1167.73 112.274 1166.11 113.895L1149.09 130.919L1132.06 113.895C1130.44 112.274 1128.82 112.274 1127.2 113.895C1125.58 115.517 1125.58 117.138 1127.2 118.759L1144.22 135.783L1127.2 152.806C1125.58 154.428 1125.58 156.049 1127.2 157.67C1128.82 159.291 1130.44 159.291 1132.06 157.67L1149.09 140.647L1166.11 157.67C1167.73 159.291 1169.35 159.291 1170.97 157.67C1172.6 156.049 1172.6 153.617 1170.97 152.806Z" />
<path d="M1312.03 152.806L1295 135.783L1312.03 118.759C1313.65 117.138 1313.65 115.517 1312.03 113.895C1310.4 112.274 1308.78 112.274 1307.16 113.895L1290.14 130.919L1273.12 113.895C1271.49 112.274 1269.87 112.274 1268.25 113.895C1266.63 115.517 1266.63 117.138 1268.25 118.759L1285.27 135.783L1268.25 152.806C1266.63 154.428 1266.63 156.049 1268.25 157.67C1269.87 159.291 1271.49 159.291 1273.12 157.67L1290.14 140.647L1307.16 157.67C1308.78 159.291 1310.4 159.291 1312.03 157.67C1313.65 156.049 1313.65 153.617 1312.03 152.806Z" />
<path d="M1453.08 152.806L1436.05 135.783L1453.08 118.759C1454.7 117.138 1454.7 115.517 1453.08 113.895C1451.46 112.274 1449.84 112.274 1448.21 113.895L1431.19 130.919L1414.17 113.895C1412.55 112.274 1410.93 112.274 1409.3 113.895C1407.68 115.517 1407.68 117.138 1409.3 118.759L1426.33 135.783L1409.3 152.806C1407.68 154.428 1407.68 156.049 1409.3 157.67C1410.93 159.291 1412.55 159.291 1414.17 157.67L1431.19 140.647L1448.21 157.67C1449.84 159.291 1451.46 159.291 1453.08 157.67C1454.7 156.049 1454.7 153.617 1453.08 152.806Z" />
<path d="M44.9907 264.675L27.9672 247.652L44.9907 230.628C46.6119 229.007 46.6119 227.385 44.9907 225.764C43.3694 224.143 41.7482 224.143 40.1269 225.764L23.1033 242.788L6.07987 225.764C4.45859 224.143 2.83725 224.143 1.21597 225.764C-0.405322 227.385 -0.405322 229.007 1.21597 230.628L18.2395 247.652L1.21597 264.675C-0.405322 266.296 -0.405322 267.918 1.21597 269.539C2.83725 271.16 4.45859 271.16 6.07987 269.539L23.1033 252.515L40.1269 269.539C41.7482 271.16 43.3694 271.16 44.9907 269.539C46.6119 268.728 46.6119 266.296 44.9907 264.675Z" />
<path d="M186.043 264.675L169.019 247.652L186.043 230.628C187.664 229.007 187.664 227.385 186.043 225.764C184.421 224.143 182.8 224.143 181.179 225.764L164.155 242.788L147.132 225.764C145.511 224.143 143.889 224.143 142.268 225.764C140.647 227.385 140.647 229.007 142.268 230.628L159.292 247.652L142.268 264.675C140.647 266.296 140.647 267.918 142.268 269.539C143.889 271.16 145.511 271.16 147.132 269.539L164.155 252.515L181.179 269.539C182.8 271.16 184.421 271.16 186.043 269.539C187.664 268.728 187.664 266.296 186.043 264.675Z" />
<path d="M326.284 264.675L309.26 247.652L326.284 230.628C327.905 229.007 327.905 227.385 326.284 225.764C324.662 224.143 323.041 224.143 321.42 225.764L304.396 242.788L287.373 225.764C285.751 224.143 284.13 224.143 282.509 225.764C280.887 227.385 280.887 229.007 282.509 230.628L299.532 247.652L282.509 264.675C280.887 266.296 280.887 267.918 282.509 269.539C284.13 271.16 285.751 271.16 287.373 269.539L304.396 252.515L321.42 269.539C323.041 271.16 324.662 271.16 326.284 269.539C327.905 268.728 327.905 266.296 326.284 264.675Z" />
<path d="M467.336 264.675L450.312 247.652L467.336 230.628C468.957 229.007 468.957 227.385 467.336 225.764C465.714 224.143 464.093 224.143 462.472 225.764L445.448 242.788L428.425 225.764C426.803 224.143 425.182 224.143 423.561 225.764C421.94 227.385 421.94 229.007 423.561 230.628L440.584 247.652L423.561 264.675C421.94 266.296 421.94 267.918 423.561 269.539C425.182 271.16 426.803 271.16 428.425 269.539L445.448 252.515L462.472 269.539C464.093 271.16 465.714 271.16 467.336 269.539C468.957 268.728 468.957 266.296 467.336 264.675Z" />
<path d="M608.388 264.675L591.365 247.652L608.388 230.628C610.01 229.007 610.01 227.385 608.388 225.764C606.767 224.143 605.146 224.143 603.524 225.764L586.501 242.788L568.667 225.764C567.046 224.143 565.424 224.143 563.803 225.764C562.182 227.385 562.182 229.007 563.803 230.628L580.826 247.652L563.803 264.675C562.182 266.296 562.182 267.918 563.803 269.539C565.424 271.16 567.046 271.16 568.667 269.539L585.69 252.515L602.714 269.539C604.335 271.16 605.956 271.16 607.578 269.539C610.01 268.728 610.01 266.296 608.388 264.675Z" />
<path d="M748.63 264.675L731.606 247.652L748.63 230.628C750.251 229.007 750.251 227.385 748.63 225.764C747.008 224.143 745.387 224.143 743.766 225.764L726.742 242.788L709.719 225.764C708.097 224.143 706.476 224.143 704.855 225.764C703.234 227.385 703.234 229.007 704.855 230.628L721.878 247.652L704.855 264.675C703.234 266.296 703.234 267.918 704.855 269.539C706.476 271.16 708.097 271.16 709.719 269.539L726.742 252.515L743.766 269.539C745.387 271.16 747.008 271.16 748.63 269.539C750.251 268.728 750.251 266.296 748.63 264.675Z" />
<path d="M889.681 264.675L872.657 247.652L889.681 230.628C891.302 229.007 891.302 227.385 889.681 225.764C888.06 224.143 886.438 224.143 884.817 225.764L867.793 242.788L850.77 225.764C849.149 224.143 847.527 224.143 845.906 225.764C844.285 227.385 844.285 229.007 845.906 230.628L862.93 247.652L845.906 264.675C844.285 266.296 844.285 267.918 845.906 269.539C847.527 271.16 849.149 271.16 850.77 269.539L867.793 252.515L884.817 269.539C886.438 271.16 888.06 271.16 889.681 269.539C891.302 268.728 891.302 266.296 889.681 264.675Z" />
<path d="M1030.73 264.675L1013.71 247.652L1030.73 230.628C1032.35 229.007 1032.35 227.385 1030.73 225.764C1029.11 224.143 1027.49 224.143 1025.87 225.764L1008.85 242.788L991.822 225.764C990.201 224.143 988.579 224.143 986.958 225.764C985.337 227.385 985.337 229.007 986.958 230.628L1003.98 247.652L986.958 264.675C985.337 266.296 985.337 267.918 986.958 269.539C988.579 271.16 990.201 271.16 991.822 269.539L1008.85 252.515L1025.87 269.539C1027.49 271.16 1029.11 271.16 1030.73 269.539C1032.35 268.728 1032.35 266.296 1030.73 264.675Z" />
<path d="M1170.97 264.675L1153.95 247.652L1170.97 230.628C1172.6 229.007 1172.6 227.385 1170.97 225.764C1169.35 224.143 1167.73 224.143 1166.11 225.764L1149.09 242.788L1132.06 225.764C1130.44 224.143 1128.82 224.143 1127.2 225.764C1125.58 227.385 1125.58 229.007 1127.2 230.628L1144.22 247.652L1127.2 264.675C1125.58 266.296 1125.58 267.918 1127.2 269.539C1128.82 271.16 1130.44 271.16 1132.06 269.539L1149.09 252.515L1166.11 269.539C1167.73 271.16 1169.35 271.16 1170.97 269.539C1172.6 268.728 1172.6 266.296 1170.97 264.675Z" />
<path d="M1312.03 264.675L1295 247.652L1312.03 230.628C1313.65 229.007 1313.65 227.385 1312.03 225.764C1310.4 224.143 1308.78 224.143 1307.16 225.764L1290.14 242.788L1273.12 225.764C1271.49 224.143 1269.87 224.143 1268.25 225.764C1266.63 227.385 1266.63 229.007 1268.25 230.628L1285.27 247.652L1268.25 264.675C1266.63 266.296 1266.63 267.918 1268.25 269.539C1269.87 271.16 1271.49 271.16 1273.12 269.539L1290.14 252.515L1307.16 269.539C1308.78 271.16 1310.4 271.16 1312.03 269.539C1313.65 268.728 1313.65 266.296 1312.03 264.675Z" />
<path d="M1453.08 264.675L1436.05 247.652L1453.08 230.628C1454.7 229.007 1454.7 227.385 1453.08 225.764C1451.46 224.143 1449.84 224.143 1448.21 225.764L1431.19 242.788L1414.17 225.764C1412.55 224.143 1410.93 224.143 1409.3 225.764C1407.68 227.385 1407.68 229.007 1409.3 230.628L1426.33 247.652L1409.3 264.675C1407.68 266.296 1407.68 267.918 1409.3 269.539C1410.93 271.16 1412.55 271.16 1414.17 269.539L1431.19 252.515L1448.21 269.539C1449.84 271.16 1451.46 271.16 1453.08 269.539C1454.7 267.918 1454.7 266.296 1453.08 264.675Z" />
<path d="M44.9907 377.355L27.9672 360.331L44.9907 343.307C46.6119 341.686 46.6119 340.065 44.9907 338.444C43.3694 336.822 41.7482 336.822 40.1269 338.444L23.1033 355.467L6.07987 338.444C4.45859 336.822 2.83725 336.822 1.21597 338.444C-0.405322 340.065 -0.405322 341.686 1.21597 343.307L18.2395 360.331L1.21597 377.355C-0.405322 378.976 -0.405322 380.597 1.21597 382.218C2.83725 383.84 4.45859 383.84 6.07987 382.218L23.1033 365.195L40.1269 382.218C41.7482 383.84 43.3694 383.84 44.9907 382.218C46.6119 380.597 46.6119 378.165 44.9907 377.355Z" />
<path d="M186.043 377.355L169.019 360.331L186.043 343.307C187.664 341.686 187.664 340.065 186.043 338.444C184.421 336.822 182.8 336.822 181.179 338.444L164.155 355.467L147.132 338.444C145.511 336.822 143.889 336.822 142.268 338.444C140.647 340.065 140.647 341.686 142.268 343.307L159.292 360.331L142.268 377.355C140.647 378.976 140.647 380.597 142.268 382.218C143.889 383.84 145.511 383.84 147.132 382.218L164.155 365.195L181.179 382.218C182.8 383.84 184.421 383.84 186.043 382.218C187.664 380.597 187.664 378.165 186.043 377.355Z" />
<path d="M326.284 377.355L309.26 360.331L326.284 343.307C327.905 341.686 327.905 340.065 326.284 338.444C324.662 336.822 323.041 336.822 321.42 338.444L304.396 355.467L287.373 338.444C285.751 336.822 284.13 336.822 282.509 338.444C280.887 340.065 280.887 341.686 282.509 343.307L299.532 360.331L282.509 377.355C280.887 378.976 280.887 380.597 282.509 382.218C284.13 383.84 285.751 383.84 287.373 382.218L304.396 365.195L321.42 382.218C323.041 383.84 324.662 383.84 326.284 382.218C327.905 380.597 327.905 378.165 326.284 377.355Z" />
<path d="M467.336 377.355L450.312 360.331L467.336 343.307C468.957 341.686 468.957 340.065 467.336 338.444C465.714 336.822 464.093 336.822 462.472 338.444L445.448 355.467L428.425 338.444C426.803 336.822 425.182 336.822 423.561 338.444C421.94 340.065 421.94 341.686 423.561 343.307L440.584 360.331L423.561 377.355C421.94 378.976 421.94 380.597 423.561 382.218C425.182 383.84 426.803 383.84 428.425 382.218L445.448 365.195L462.472 382.218C464.093 383.84 465.714 383.84 467.336 382.218C468.957 380.597 468.957 378.165 467.336 377.355Z" />
<path d="M608.388 377.355L591.365 360.331L608.388 343.307C610.009 341.686 610.009 340.065 608.388 338.444C606.767 336.822 605.146 336.822 603.524 338.444L586.501 355.467L569.477 338.444C567.856 336.822 566.235 336.822 564.613 338.444C562.992 340.065 562.992 341.686 564.613 343.307L581.637 360.331L564.613 377.355C562.992 378.976 562.992 380.597 564.613 382.218C566.235 383.84 567.856 383.84 569.477 382.218L586.501 365.195L603.524 382.218C605.146 383.84 606.767 383.84 608.388 382.218C610.009 380.597 610.009 378.165 608.388 377.355Z" />
<path d="M748.63 377.355L731.606 360.331L748.63 343.307C750.251 341.686 750.251 340.065 748.63 338.444C747.008 336.822 745.387 336.822 743.766 338.444L726.742 355.467L709.719 338.444C708.097 336.822 706.476 336.822 704.855 338.444C703.234 340.065 703.234 341.686 704.855 343.307L721.878 360.331L704.855 377.355C703.234 378.976 703.234 380.597 704.855 382.218C706.476 383.84 708.097 383.84 709.719 382.218L726.742 365.195L743.766 382.218C745.387 383.84 747.008 383.84 748.63 382.218C750.251 380.597 750.251 378.165 748.63 377.355Z" />
<path d="M889.681 377.355L872.657 360.331L889.681 343.307C891.302 341.686 891.302 340.065 889.681 338.444C888.06 336.822 886.438 336.822 884.817 338.444L867.793 355.467L850.77 338.444C849.149 336.822 847.527 336.822 845.906 338.444C844.285 340.065 844.285 341.686 845.906 343.307L862.93 360.331L845.906 377.355C844.285 378.976 844.285 380.597 845.906 382.218C847.527 383.84 849.149 383.84 850.77 382.218L867.793 365.195L884.817 382.218C886.438 383.84 888.06 383.84 889.681 382.218C891.302 380.597 891.302 378.165 889.681 377.355Z" />
<path d="M1030.73 377.355L1013.71 360.331L1030.73 343.307C1032.35 341.686 1032.35 340.065 1030.73 338.444C1029.11 336.822 1027.49 336.822 1025.87 338.444L1008.85 355.467L991.822 338.444C990.201 336.822 988.579 336.822 986.958 338.444C985.337 340.065 985.337 341.686 986.958 343.307L1003.98 360.331L986.958 377.355C985.337 378.976 985.337 380.597 986.958 382.218C988.579 383.84 990.201 383.84 991.822 382.218L1008.85 365.195L1025.87 382.218C1027.49 383.84 1029.11 383.84 1030.73 382.218C1032.35 380.597 1032.35 378.165 1030.73 377.355Z" />
<path d="M1170.97 377.355L1153.95 360.331L1170.97 343.307C1172.6 341.686 1172.6 340.065 1170.97 338.444C1169.35 336.822 1167.73 336.822 1166.11 338.444L1149.09 355.467L1132.06 338.444C1130.44 336.822 1128.82 336.822 1127.2 338.444C1125.58 340.065 1125.58 341.686 1127.2 343.307L1144.22 360.331L1127.2 377.355C1125.58 378.976 1125.58 380.597 1127.2 382.218C1128.82 383.84 1130.44 383.84 1132.06 382.218L1149.09 365.195L1166.11 382.218C1167.73 383.84 1169.35 383.84 1170.97 382.218C1172.6 380.597 1172.6 378.165 1170.97 377.355Z" />
<path d="M1312.03 377.355L1295 360.331L1312.03 343.307C1313.65 341.686 1313.65 340.065 1312.03 338.444C1310.4 336.822 1308.78 336.822 1307.16 338.444L1290.14 355.467L1273.12 338.444C1271.49 336.822 1269.87 336.822 1268.25 338.444C1266.63 340.065 1266.63 341.686 1268.25 343.307L1285.27 360.331L1268.25 377.355C1266.63 378.976 1266.63 380.597 1268.25 382.218C1269.87 383.84 1271.49 383.84 1273.12 382.218L1290.14 365.195L1307.16 382.218C1308.78 383.84 1310.4 383.84 1312.03 382.218C1313.65 380.597 1313.65 378.165 1312.03 377.355Z" />
<path d="M1453.08 377.355L1436.05 360.331L1453.08 343.307C1454.7 341.686 1454.7 340.065 1453.08 338.444C1451.46 336.822 1449.84 336.822 1448.21 338.444L1431.19 355.467L1414.17 338.444C1412.55 336.822 1410.93 336.822 1409.3 338.444C1407.68 340.065 1407.68 341.686 1409.3 343.307L1426.33 360.331L1409.3 377.355C1407.68 378.976 1407.68 380.597 1409.3 382.218C1410.93 383.84 1412.55 383.84 1414.17 382.218L1431.19 365.195L1448.21 382.218C1449.84 383.84 1451.46 383.84 1453.08 382.218C1454.7 380.597 1454.7 378.165 1453.08 377.355Z" />
<path d="M44.9907 489.223L27.9672 472.2L44.9907 455.176C46.6119 453.555 46.6119 451.934 44.9907 450.312C43.3694 448.691 41.7482 448.691 40.1269 450.312L23.1033 467.336L6.07987 450.312C4.45859 448.691 2.83725 448.691 1.21597 450.312C-0.405322 451.934 -0.405322 453.555 1.21597 455.176L18.2395 472.2L1.21597 489.223C-0.405322 490.845 -0.405322 492.466 1.21597 494.087C2.83725 495.708 4.45859 495.708 6.07987 494.087L23.1033 477.064L40.1269 494.087C41.7482 495.708 43.3694 495.708 44.9907 494.087C46.6119 492.466 46.6119 490.845 44.9907 489.223Z" />
<path d="M186.043 489.223L169.019 472.2L186.043 455.176C187.664 453.555 187.664 451.934 186.043 450.312C184.421 448.691 182.8 448.691 181.179 450.312L164.155 467.336L147.132 450.312C145.511 448.691 143.889 448.691 142.268 450.312C140.647 451.934 140.647 453.555 142.268 455.176L159.292 472.2L142.268 489.223C140.647 490.845 140.647 492.466 142.268 494.087C143.889 495.708 145.511 495.708 147.132 494.087L164.155 477.064L181.179 494.087C182.8 495.708 184.421 495.708 186.043 494.087C187.664 492.466 187.664 490.845 186.043 489.223Z" />
<path d="M326.284 489.223L309.26 472.2L326.284 455.176C327.905 453.555 327.905 451.934 326.284 450.312C324.662 448.691 323.041 448.691 321.42 450.312L304.396 467.336L287.373 450.312C285.751 448.691 284.13 448.691 282.509 450.312C280.887 451.934 280.887 453.555 282.509 455.176L299.532 472.2L282.509 489.223C280.887 490.845 280.887 492.466 282.509 494.087C284.13 495.708 285.751 495.708 287.373 494.087L304.396 477.064L321.42 494.087C323.041 495.708 324.662 495.708 326.284 494.087C327.905 492.466 327.905 490.845 326.284 489.223Z" />
<path d="M467.336 489.223L450.312 472.2L467.336 455.176C468.957 453.555 468.957 451.934 467.336 450.312C465.714 448.691 464.093 448.691 462.472 450.312L445.448 467.336L428.425 450.312C426.803 448.691 425.182 448.691 423.561 450.312C421.94 451.934 421.94 453.555 423.561 455.176L440.584 472.2L423.561 489.223C421.94 490.845 421.94 492.466 423.561 494.087C425.182 495.708 426.803 495.708 428.425 494.087L445.448 477.064L462.472 494.087C464.093 495.708 465.714 495.708 467.336 494.087C468.957 492.466 468.957 490.845 467.336 489.223Z" />
<path d="M608.388 489.223L591.365 472.2L608.388 455.176C610.009 453.555 610.009 451.934 608.388 450.312C606.767 448.691 605.146 448.691 603.524 450.312L586.501 467.336L569.477 450.312C567.856 448.691 566.235 448.691 564.613 450.312C562.992 451.934 562.992 453.555 564.613 455.176L581.637 472.2L564.613 489.223C562.992 490.845 562.992 492.466 564.613 494.087C566.235 495.708 567.856 495.708 569.477 494.087L586.501 477.064L603.524 494.087C605.146 495.708 606.767 495.708 608.388 494.087C610.009 492.466 610.009 490.845 608.388 489.223Z" />
<path d="M748.63 489.223L731.606 472.2L748.63 455.176C750.251 453.555 750.251 451.934 748.63 450.312C747.008 448.691 745.387 448.691 743.766 450.312L726.742 467.336L709.719 450.312C708.097 448.691 706.476 448.691 704.855 450.312C703.234 451.934 703.234 453.555 704.855 455.176L721.878 472.2L704.855 489.223C703.234 490.845 703.234 492.466 704.855 494.087C706.476 495.708 708.097 495.708 709.719 494.087L726.742 477.064L743.766 494.087C745.387 495.708 747.008 495.708 748.63 494.087C750.251 492.466 750.251 490.845 748.63 489.223Z" />
<path d="M889.681 489.223L872.657 472.2L889.681 455.176C891.302 453.555 891.302 451.934 889.681 450.312C888.06 448.691 886.438 448.691 884.817 450.312L867.793 467.336L850.77 450.312C849.149 448.691 847.527 448.691 845.906 450.312C844.285 451.934 844.285 453.555 845.906 455.176L862.93 472.2L845.906 489.223C844.285 490.845 844.285 492.466 845.906 494.087C847.527 495.708 849.149 495.708 850.77 494.087L867.793 477.064L884.817 494.087C886.438 495.708 888.06 495.708 889.681 494.087C891.302 492.466 891.302 490.845 889.681 489.223Z" />
<path d="M1030.73 489.223L1013.71 472.2L1030.73 455.176C1032.35 453.555 1032.35 451.934 1030.73 450.312C1029.11 448.691 1027.49 448.691 1025.87 450.312L1008.85 467.336L991.822 450.312C990.201 448.691 988.579 448.691 986.958 450.312C985.337 451.934 985.337 453.555 986.958 455.176L1003.98 472.2L986.958 489.223C985.337 490.845 985.337 492.466 986.958 494.087C988.579 495.708 990.201 495.708 991.822 494.087L1008.85 477.064L1025.87 494.087C1027.49 495.708 1029.11 495.708 1030.73 494.087C1032.35 492.466 1032.35 490.845 1030.73 489.223Z" />
<path d="M1170.97 489.223L1153.95 472.2L1170.97 455.176C1172.6 453.555 1172.6 451.934 1170.97 450.312C1169.35 448.691 1167.73 448.691 1166.11 450.312L1149.09 467.336L1132.06 450.312C1130.44 448.691 1128.82 448.691 1127.2 450.312C1125.58 451.934 1125.58 453.555 1127.2 455.176L1144.22 472.2L1127.2 489.223C1125.58 490.845 1125.58 492.466 1127.2 494.087C1128.82 495.708 1130.44 495.708 1132.06 494.087L1149.09 477.064L1166.11 494.087C1167.73 495.708 1169.35 495.708 1170.97 494.087C1172.6 492.466 1172.6 490.845 1170.97 489.223Z" />
<path d="M1312.03 489.223L1295 472.2L1312.03 455.176C1313.65 453.555 1313.65 451.934 1312.03 450.312C1310.4 448.691 1308.78 448.691 1307.16 450.312L1290.14 467.336L1273.12 450.312C1271.49 448.691 1269.87 448.691 1268.25 450.312C1266.63 451.934 1266.63 453.555 1268.25 455.176L1285.27 472.2L1268.25 489.223C1266.63 490.845 1266.63 492.466 1268.25 494.087C1269.87 495.708 1271.49 495.708 1273.12 494.087L1290.14 477.064L1307.16 494.087C1308.78 495.708 1310.4 495.708 1312.03 494.087C1313.65 492.466 1313.65 490.845 1312.03 489.223Z" />
<path d="M1453.08 489.223L1436.05 472.2L1453.08 455.176C1454.7 453.555 1454.7 451.934 1453.08 450.312C1451.46 448.691 1449.84 448.691 1448.21 450.312L1431.19 467.336L1414.17 450.312C1412.55 448.691 1410.93 448.691 1409.3 450.312C1407.68 451.934 1407.68 453.555 1409.3 455.176L1426.33 472.2L1409.3 489.223C1407.68 490.845 1407.68 492.466 1409.3 494.087C1410.93 495.708 1412.55 495.708 1414.17 494.087L1431.19 477.064L1448.21 494.087C1449.84 495.708 1451.46 495.708 1453.08 494.087C1454.7 492.466 1454.7 490.845 1453.08 489.223Z" />
</svg>
