<svg width="1372" height="1715" viewBox="0 0 1372 1715" fill="none" xmlns="http://www.w3.org/2000/svg">
<path d="M131.322 1386.48C155.869 1249.9 153.119 1148.22 122.624 1081.8C92.4234 1016.02 59.3895 934.919 23.5228 838.478C-12.1315 742.607 -2.90805 646.436 51.3406 549.806C105.684 453.008 179.156 377.119 271.77 322.102C364.88 266.79 464.502 186.269 570.637 80.5866C623.506 27.9427 672.927 2.181 718.934 2.59309C764.864 3.00448 808.014 29.5165 848.359 82.8901C929.899 190.765 1042.54 238.408 1185.99 225.856C1221.55 222.745 1249.07 225.523 1268.73 233.974C1288.27 242.373 1300.12 256.39 1304.47 276.129C1308.86 296.011 1305.68 321.883 1294.64 353.897C1283.6 385.877 1264.78 423.789 1238.12 467.65C1184.62 555.661 1160.63 631.357 1166.6 694.622C1172.58 758.04 1208.63 808.59 1274.29 846.265C1306.8 864.921 1330.91 883.261 1346.73 901.256C1362.54 919.241 1369.96 936.747 1369.42 953.815C1368.87 970.883 1360.35 987.924 1343.42 1004.95C1326.48 1021.98 1301.25 1038.87 1267.61 1055.59C1199.79 1089.28 1150.55 1136.49 1120.02 1197.23C1089.49 1257.95 1077.73 1332.03 1084.59 1419.38C1091.42 1506.27 1080.16 1573.56 1051.13 1621.5C1022.15 1669.35 975.299 1698.2 910.26 1707.93C845.079 1717.68 786.793 1710.08 735.321 1685.21C683.839 1660.33 639.027 1618.12 600.925 1558.41C562.487 1498.18 517.082 1461.6 464.64 1449.07C412.215 1436.55 353.148 1448.16 287.567 1483.5C254.992 1501.05 227.376 1512.09 204.685 1516.7C181.979 1521.32 164.459 1519.46 151.804 1511.58C139.189 1503.72 130.983 1489.61 127.475 1468.76C123.964 1447.9 125.208 1420.5 131.322 1386.48Z"/>
</svg>
