<svg width="359" height="529" viewBox="0 0 359 529" fill="none" xmlns="http://www.w3.org/2000/svg">
<path d="M314.07 311.219C288.865 322.454 268.626 333.956 253.379 345.735C238.137 357.51 227.832 369.6 222.577 382.026C212.28 406.37 191.823 442.699 161.167 491.044C153.532 503.084 146.097 512.153 138.869 518.295C131.643 524.436 124.679 527.607 117.968 527.966C104.597 528.68 91.5428 518.214 78.9038 495.578C53.5987 450.258 31.1227 402.695 11.4763 352.888C1.69582 328.093 -1.21659 305.483 2.65566 285.027C6.52616 264.58 17.1918 246.196 34.7223 229.869C70.2671 196.766 92.4977 147.674 101.516 82.7263C106.007 50.3861 114.344 27.7696 126.381 14.664C132.383 8.13019 139.303 3.96 147.151 2.10983C155.007 0.257537 163.859 0.715576 173.733 3.54645C213.348 14.9034 241.635 44.0283 258.548 91.1513C275.59 138.632 301.653 181.861 336.728 220.834C354.15 240.191 360.707 257.237 356.997 272.074C353.28 286.941 339.151 300.039 314.07 311.219Z" stroke-width="4"/>
</svg>
