<svg width="136" height="28" viewBox="0 0 136 28" fill="none" xmlns="http://www.w3.org/2000/svg">
<path d="M128.577 20.5766C132.365 16.7886 132.365 10.647 128.577 6.85892C124.789 3.07087 118.647 3.07085 114.859 6.8589C111.071 10.6469 111.071 16.7886 114.859 20.5767C118.647 24.3647 124.789 24.3647 128.577 20.5766Z"  stroke-width="1.7071" stroke-miterlimit="10"/>
<path d="M92.5766 20.5766C96.3647 16.7886 96.3647 10.647 92.5766 6.85892C88.7886 3.07087 82.6469 3.07085 78.8589 6.8589C75.0708 10.6469 75.0708 16.7886 78.8589 20.5767C82.6469 24.3647 88.7886 24.3647 92.5766 20.5766Z"  stroke-width="1.7071" stroke-miterlimit="10"/>
<path d="M56.5766 20.5766C60.3647 16.7886 60.3647 10.647 56.5766 6.85892C52.7886 3.07087 46.6469 3.07085 42.8589 6.8589C39.0708 10.6469 39.0708 16.7886 42.8589 20.5767C46.6469 24.3647 52.7886 24.3647 56.5766 20.5766Z"  stroke-width="1.7071" stroke-miterlimit="10"/>
<path d="M20.5766 20.5766C24.3647 16.7886 24.3647 10.647 20.5766 6.85892C16.7886 3.07087 10.6469 3.07085 6.85888 6.8589C3.07083 10.6469 3.07083 16.7886 6.85888 20.5767C10.6469 24.3647 16.7886 24.3647 20.5766 20.5766Z"  stroke-width="1.7071" stroke-miterlimit="10"/>
</svg>
