<svg width="788" height="788" viewBox="0 0 788 788" fill="none" xmlns="http://www.w3.org/2000/svg">
<path d="M568.859 598.052C568.874 594.708 571.393 592.211 574.737 592.226C578.082 592.241 580.578 594.761 580.563 598.105C580.548 601.449 578.029 603.946 574.684 603.931C571.758 603.917 569.054 601.188 568.859 598.052Z" />
<path d="M478.148 597.642C478.163 594.298 480.683 591.801 484.027 591.816C487.371 591.832 489.868 594.351 489.853 597.695C489.838 601.039 487.318 603.536 483.974 603.521C480.63 603.506 478.133 600.986 478.148 597.642Z" />
<path d="M387.438 597.232C387.453 593.888 389.973 591.391 393.317 591.406C396.661 591.421 399.158 593.941 399.143 597.285C399.127 600.629 396.608 603.126 393.264 603.111C389.92 603.096 387.215 600.366 387.438 597.232Z" />
<path d="M306.323 601.045C308.642 598.747 308.659 595.004 306.361 592.685C304.063 590.366 300.32 590.349 298.001 592.647C295.682 594.946 295.665 598.689 297.963 601.008C300.261 603.327 304.004 603.344 306.323 601.045Z" />
<path d="M205.6 596.41C205.615 593.066 208.134 590.569 211.478 590.584C214.823 590.599 217.319 593.119 217.304 596.463C217.289 599.807 214.77 602.304 211.425 602.289C208.081 602.273 205.376 599.544 205.6 596.41Z" />
<path d="M569.435 516.749C569.45 513.405 571.97 510.908 575.314 510.923C578.658 510.938 581.155 513.458 581.14 516.802C581.125 520.146 578.605 522.643 575.261 522.628C571.917 522.612 569.42 520.093 569.435 516.749Z" />
<path d="M478.515 516.547C478.53 513.203 481.049 510.706 484.393 510.721C487.738 510.736 490.234 513.256 490.219 516.6C490.204 519.944 487.685 522.441 484.34 522.426C481.206 522.203 478.501 519.473 478.515 516.547Z" />
<path d="M387.596 515.927C387.612 512.582 390.131 510.086 393.475 510.101C396.819 510.116 399.316 512.635 399.301 515.98C399.286 519.324 396.766 521.82 393.422 521.805C390.078 521.79 387.581 519.271 387.596 515.927Z" />
<path d="M306.69 519.95C309.009 517.652 309.026 513.909 306.728 511.59C304.429 509.271 300.686 509.254 298.367 511.552C296.048 513.85 296.031 517.593 298.33 519.912C300.628 522.232 304.371 522.248 306.69 519.95Z" />
<path d="M215.772 519.33C218.091 517.032 218.108 513.289 215.809 510.97C213.511 508.65 209.768 508.634 207.449 510.932C205.13 513.23 205.113 516.973 207.411 519.292C209.71 521.611 213.453 521.628 215.772 519.33Z" />
<path d="M579.816 439.878C582.135 437.58 582.152 433.837 579.853 431.518C577.555 429.199 573.812 429.182 571.493 431.48C569.174 433.778 569.157 437.521 571.455 439.84C573.753 442.16 577.497 442.176 579.816 439.878Z" />
<path d="M488.687 439.466C491.006 437.168 491.023 433.425 488.725 431.106C486.427 428.787 482.684 428.77 480.365 431.068C478.046 433.366 478.029 437.109 480.327 439.429C482.625 441.748 486.368 441.765 488.687 439.466Z" />
<path d="M387.964 434.83C387.979 431.486 390.498 428.99 393.842 429.005C397.187 429.02 399.683 431.539 399.668 434.883C399.653 438.228 397.134 440.724 393.79 440.709C390.445 440.694 387.949 438.175 387.964 434.83Z" />
<path d="M297.253 434.42C297.269 431.076 299.788 428.579 303.132 428.594C306.476 428.61 308.973 431.129 308.958 434.473C308.943 437.817 306.423 440.314 303.079 440.299C299.735 440.284 297.03 437.554 297.253 434.42Z" />
<path d="M206.125 434.008C206.14 430.664 208.66 428.168 212.004 428.183C215.348 428.198 217.845 430.717 217.83 434.061C217.814 437.406 215.295 439.902 211.951 439.887C208.817 439.664 206.32 437.145 206.125 434.008Z" />
<path d="M570.169 354.557C570.184 351.212 572.704 348.716 576.048 348.731C579.392 348.746 581.889 351.265 581.874 354.61C581.858 357.954 579.339 360.45 575.995 360.435C572.861 360.212 570.156 357.483 570.169 354.557Z" />
<path d="M479.25 353.937C479.265 350.592 481.785 348.096 485.129 348.111C488.473 348.126 490.97 350.645 490.955 353.99C490.94 357.334 488.42 359.83 485.076 359.815C481.732 359.8 479.235 357.281 479.25 353.937Z" />
<path d="M388.33 353.734C388.346 350.39 390.865 347.893 394.209 347.908C397.553 347.924 400.05 350.443 400.035 353.787C400.02 357.131 397.5 359.628 394.156 359.613C391.022 359.39 388.317 356.66 388.33 353.734Z" />
<path d="M307.425 357.34C309.744 355.042 309.761 351.299 307.463 348.98C305.165 346.66 301.422 346.644 299.103 348.942C296.784 351.24 296.767 354.983 299.065 357.302C301.363 359.621 305.106 359.638 307.425 357.34Z" />
<path d="M206.702 352.704C206.717 349.36 209.236 346.863 212.58 346.878C215.925 346.894 218.421 349.413 218.406 352.757C218.391 356.101 215.872 358.598 212.528 358.583C209.183 358.568 206.687 356.048 206.702 352.704Z" />
<path d="M570.327 273.251C570.343 269.907 572.862 267.41 576.206 267.426C579.55 267.441 582.047 269.96 582.032 273.304C582.017 276.648 579.497 279.145 576.153 279.13C573.019 278.907 570.522 276.387 570.327 273.251Z" />
<path d="M479.617 272.841C479.632 269.497 482.152 267 485.496 267.016C488.84 267.031 491.337 269.55 491.322 272.894C491.306 276.239 488.787 278.735 485.443 278.72C482.099 278.705 479.602 276.186 479.617 272.841Z" />
<path d="M388.907 272.431C388.922 269.087 391.441 266.59 394.786 266.605C398.13 266.621 400.626 269.14 400.611 272.484C400.596 275.828 398.077 278.325 394.733 278.31C391.388 278.295 388.684 275.565 388.907 272.431Z" />
<path d="M307.792 276.245C310.111 273.947 310.128 270.204 307.83 267.885C305.532 265.565 301.788 265.549 299.469 267.847C297.15 270.145 297.133 273.888 299.432 276.207C301.73 278.526 305.473 278.543 307.792 276.245Z" />
<path d="M217.082 275.835C219.401 273.536 219.418 269.793 217.12 267.474C214.822 265.155 211.078 265.138 208.759 267.436C206.44 269.735 206.423 273.478 208.722 275.797C211.02 278.116 214.763 278.133 217.082 275.835Z" />
<path d="M580.918 196.173C583.237 193.874 583.254 190.131 580.956 187.812C578.658 185.493 574.914 185.476 572.595 187.774C570.276 190.073 570.259 193.816 572.558 196.135C574.856 198.454 578.599 198.471 580.918 196.173Z" />
<path d="M489.998 195.971C492.317 193.673 492.334 189.929 490.036 187.61C487.737 185.291 483.994 185.274 481.675 187.573C479.356 189.871 479.339 193.614 481.637 195.933C483.936 198.252 487.679 198.269 489.998 195.971Z" />
<path d="M389.066 191.125C389.081 187.781 391.6 185.284 394.944 185.299C398.289 185.314 400.785 187.834 400.77 191.178C400.755 194.522 398.236 197.019 394.892 197.004C391.547 196.988 389.051 194.469 389.066 191.125Z" />
<path d="M298.356 190.715C298.371 187.371 300.89 184.874 304.235 184.889C307.579 184.904 310.075 187.423 310.06 190.768C310.045 194.112 307.526 196.609 304.182 196.593C300.837 196.578 298.133 193.849 298.356 190.715Z" />
<path d="M207.227 190.303C207.242 186.959 209.762 184.462 213.106 184.477C216.45 184.492 218.947 187.012 218.932 190.356C218.917 193.7 216.397 196.197 213.053 196.182C209.917 196.376 207.212 193.647 207.227 190.303Z" />
</svg>
